<?xml version="1.0" encoding="utf-8"?>
<!-- Generator: Adobe Illustrator 27.5.0, SVG Export Plug-In . SVG Version: 6.00 Build 0)  -->
<svg version="1.1" xmlns="http://www.w3.org/2000/svg" xmlns:xlink="http://www.w3.org/1999/xlink" x="0px" y="0px"
	 viewBox="0 0 500 500" style="enable-background:new 0 0 500 500;" xml:space="preserve">
<g id="Background_Simple">
	<g>
		<g>
			<g>
				<path style="fill:#FFE6DE;" d="M488.273,184.883c-0.17,2.207-0.339,4.436-0.495,6.708l0,0.011
					c-0.689,9.709-1.309,19.795-1.922,30.13c-4.44,72.874-9.396,156.201-43.336,183.063c-19.152,15.147-53.897,24.672-94.234,30.439
					c-81.634,11.702-186.156,8.05-230.538,4.774c-15.151-1.111-28.495-8.587-40.133-20.637
					c-17.408-17.994-30.981-46.209-41.034-78.593c-4.732-15.229-8.677-31.381-11.863-47.826
					c-14.08-72.305-13.68-150.327-1.482-180.782c13.503-40.17,112.991-60.733,215.322-61.814c9.004-0.093,18.012-0.034,27.001,0.167
					c0.07-0.002,0.151-0.004,0.221,0.005c78.635,1.805,154.61,15.12,190.095,39.849c1.66,1.146,3.228,2.339,4.703,3.545
					c6.972,5.694,11.879,11.934,14.35,18.732c1.254,2.416,2.427,4.857,3.497,7.322c4.088,9.334,6.851,19.053,8.506,29.042
					C488.841,160.661,489.205,172.672,488.273,184.883z"/>
			</g>
		</g>
		<g>
			<g>
				<path style="fill:#FFFFFF;" d="M202.48,147.636c0,0,21.38-31.778-8.042-45.351c0,0,19.077,5.431,27.919-7.519
					c8.843-12.95,10.268-27.517,10.268-27.517s7.201,23.65,22.915,25.415c21.597,2.426,30.127-5.893,30.127-5.893
					s-6.712,17.096-2.183,30.018c4.529,12.921,18.17,14.701,18.17,14.701s-24.806-1.535-33.778,12.739
					c-8.972,14.274-8.276,29.94-8.276,29.94s-5.787-22.848-29.849-27.43C205.69,142.157,202.48,147.636,202.48,147.636z"/>
			</g>
		</g>
		<g>
			<g>
				<path style="fill:#FFFFFF;" d="M142.021,350.781c-1.598-0.25-6.62,0.199-6.62,0.199l-1.13-1.433c0,0,3.378-5.697,2.551-6.791
					c-0.826-1.094-6.76-4.565-7.751-4.136c-0.991,0.429-3.963,4.617-3.963,4.617l-2.081-0.276c0,0-0.81-5.767-3.154-5.655
					c-2.344,0.113-6.941,1.632-7.861,2.226c-0.92,0.594,0.462,6.232,0.462,6.232l-1.517,1.214l-0.653-0.313
					c0,0-4.507-2.817-5.795-1.851c-1.288,0.966-4.346,7.243-4.105,8.048c0.241,0.805,4.943,4.185,4.943,4.185l-0.355,1.61
					c0,0-5.312,1.61-5.553,3.139c-0.241,1.529,0.724,7.807,2.334,7.968c1.61,0.161,6.6-0.563,6.6-0.563l1.207,1.368
					c0,0-3.058,5.875-2.173,6.921c0.885,1.046,7.002,4.185,7.968,3.702c0.966-0.483,3.702-4.829,3.702-4.829l2.092,0.161
					c0,0,1.127,5.714,3.461,5.473c2.334-0.241,6.841-2.012,7.726-2.656c0.885-0.644-0.805-6.197-0.805-6.197l1.529-1.368
					c0,0,4.507,2.736,6.197,1.61c1.69-1.127,4.427-6.439,4.024-7.243c-0.402-0.805-4.507-4.185-4.507-4.185l0.022-0.429
					c1.427-0.398,4.839-1.468,5.096-2.663C144.238,357.351,143.619,351.03,142.021,350.781z M121.699,366.771
					c-4.016,0-7.272-3.256-7.272-7.272s3.256-7.272,7.272-7.272c4.016,0,7.272,3.256,7.272,7.272S125.715,366.771,121.699,366.771z"
					/>
			</g>
		</g>
		<g>
			<g>
				<path style="fill:#FFFFFF;" d="M384.546,94.965c-1.202-0.188-4.979,0.149-4.979,0.149l-0.85-1.077c0,0,2.54-4.285,1.918-5.107
					c-0.621-0.822-5.084-3.433-5.829-3.11c-0.745,0.322-2.98,3.472-2.98,3.472l-1.565-0.208c0,0-0.609-4.337-2.372-4.253
					c-1.763,0.085-5.22,1.227-5.912,1.674c-0.691,0.447,0.348,4.687,0.348,4.687l-1.141,0.913l-0.491-0.235
					c0,0-3.389-2.118-4.358-1.392c-0.968,0.726-3.268,5.447-3.087,6.053c0.182,0.605,3.717,3.147,3.717,3.147l-0.267,1.211
					c0,0-3.995,1.21-4.176,2.361c-0.181,1.15,0.545,5.871,1.755,5.992c1.21,0.121,4.963-0.424,4.963-0.424l0.908,1.029
					c0,0-2.3,4.418-1.634,5.205c0.666,0.787,5.266,3.147,5.992,2.784c0.726-0.363,2.784-3.632,2.784-3.632l1.574,0.121
					c0,0,0.847,4.297,2.602,4.116c1.755-0.182,5.145-1.513,5.81-1.997c0.666-0.484-0.605-4.66-0.605-4.66l1.15-1.029
					c0,0,3.389,2.058,4.66,1.21c1.271-0.847,3.329-4.842,3.026-5.447c-0.303-0.605-3.389-3.147-3.389-3.147l0.016-0.323
					c1.073-0.299,3.639-1.104,3.832-2.003C386.212,99.906,385.747,95.152,384.546,94.965z M369.263,106.99
					c-3.02,0-5.469-2.448-5.469-5.469c0-3.02,2.448-5.469,5.469-5.469c3.02,0,5.469,2.448,5.469,5.469
					C374.732,104.541,372.283,106.99,369.263,106.99z"/>
			</g>
		</g>
		<g>
			<g>
				<path style="fill:#FFFFFF;" d="M127.977,83.324c-1.202-0.188-4.979,0.149-4.979,0.149l-0.85-1.077c0,0,2.54-4.285,1.918-5.107
					c-0.621-0.822-5.084-3.433-5.829-3.11c-0.745,0.323-2.98,3.473-2.98,3.473l-1.565-0.208c0,0-0.609-4.337-2.372-4.253
					c-1.763,0.085-5.22,1.227-5.912,1.674c-0.691,0.447,0.347,4.687,0.347,4.687l-1.141,0.913l-0.491-0.235
					c0,0-3.39-2.118-4.358-1.392c-0.968,0.726-3.268,5.447-3.087,6.053c0.182,0.605,3.717,3.147,3.717,3.147l-0.267,1.211
					c0,0-3.995,1.211-4.176,2.36c-0.182,1.15,0.545,5.871,1.755,5.992c1.21,0.121,4.963-0.424,4.963-0.424l0.908,1.029
					c0,0-2.3,4.418-1.634,5.205c0.666,0.787,5.266,3.147,5.992,2.784c0.726-0.363,2.784-3.632,2.784-3.632l1.574,0.121
					c0,0,0.847,4.297,2.603,4.116c1.755-0.182,5.145-1.513,5.81-1.997c0.666-0.484-0.605-4.66-0.605-4.66l1.15-1.029
					c0,0,3.389,2.058,4.66,1.21c1.271-0.847,3.329-4.842,3.026-5.447c-0.303-0.605-3.389-3.147-3.389-3.147l0.016-0.323
					c1.073-0.299,3.639-1.104,3.832-2.003C129.644,88.265,129.179,83.511,127.977,83.324z M112.695,95.349
					c-3.02,0-5.469-2.448-5.469-5.469c0-3.02,2.448-5.469,5.469-5.469c3.02,0,5.469,2.448,5.469,5.469
					C118.163,92.9,115.715,95.349,112.695,95.349z"/>
			</g>
		</g>
		<g>
			<g>
				<path style="fill:#FFFFFF;" d="M107.015,221.387c-2.377-0.371-9.845,0.295-9.845,0.295l-1.68-2.13c0,0,5.023-8.473,3.794-10.099
					c-1.229-1.626-10.053-6.788-11.527-6.15c-1.474,0.638-5.893,6.867-5.893,6.867l-3.094-0.41c0,0-1.205-8.577-4.69-8.41
					c-3.485,0.167-10.322,2.427-11.69,3.31c-1.367,0.883,0.687,9.267,0.687,9.267l-2.256,1.805l-0.971-0.465
					c0,0-6.702-4.189-8.617-2.753c-1.915,1.436-6.463,10.771-6.104,11.968c0.359,1.197,7.35,6.223,7.35,6.223l-0.528,2.394
					c0,0-7.899,2.394-8.258,4.668c-0.359,2.274,1.077,11.609,3.471,11.849c2.394,0.239,9.814-0.838,9.814-0.838l1.795,2.035
					c0,0-4.548,8.737-3.231,10.293c1.316,1.556,10.412,6.224,11.849,5.505c1.436-0.718,5.505-7.181,5.505-7.181l3.112,0.24
					c0,0,1.675,8.497,5.146,8.138c3.471-0.359,10.173-2.992,11.49-3.949c1.316-0.957-1.197-9.216-1.197-9.216l2.274-2.035
					c0,0,6.702,4.069,9.215,2.394c2.514-1.675,6.583-9.575,5.984-10.771c-0.598-1.197-6.702-6.224-6.702-6.224l0.032-0.639
					c2.121-0.592,7.196-2.183,7.578-3.96C110.312,231.158,109.392,221.758,107.015,221.387z M76.795,245.166
					c-5.972,0-10.814-4.842-10.814-10.814s4.842-10.814,10.814-10.814c5.972,0,10.814,4.842,10.814,10.814
					S82.768,245.166,76.795,245.166z"/>
			</g>
		</g>
		<g>
			<g>
				<path style="fill:#FFFFFF;" d="M431.71,256.004c-3.474-0.542-14.388,0.432-14.388,0.432l-2.456-3.113
					c0,0,7.34-12.382,5.544-14.759c-1.796-2.376-14.693-9.92-16.846-8.988c-2.154,0.932-8.612,10.035-8.612,10.035l-4.522-0.6
					c0,0-1.76-12.534-6.854-12.29c-5.094,0.245-15.086,3.547-17.084,4.838c-1.998,1.291,1.004,13.544,1.004,13.544l-3.297,2.638
					l-1.419-0.68c0,0-9.795-6.122-12.594-4.023c-2.799,2.099-9.445,15.742-8.921,17.491c0.525,1.749,10.742,9.095,10.742,9.095
					l-0.772,3.498c0,0-11.544,3.498-12.068,6.822c-0.525,3.323,1.574,16.966,5.072,17.316c3.498,0.35,14.343-1.224,14.343-1.224
					l2.624,2.973c0,0-6.647,12.768-4.722,15.042c1.924,2.274,15.217,9.095,17.316,8.046c2.099-1.05,8.046-10.495,8.046-10.495
					l4.548,0.35c0,0,2.449,12.418,7.521,11.894c5.072-0.525,14.867-4.372,16.791-5.772c1.924-1.399-1.749-13.468-1.749-13.468
					l3.323-2.973c0,0,9.795,5.947,13.468,3.498c3.673-2.449,9.62-13.993,8.746-15.741c-0.875-1.749-9.795-9.095-9.795-9.095
					l0.047-0.933c3.1-0.865,10.517-3.191,11.075-5.787C436.528,270.284,435.184,256.546,431.71,256.004z M387.546,290.755
					c-8.728,0-15.804-7.075-15.804-15.804c0-8.728,7.076-15.804,15.804-15.804c8.728,0,15.804,7.076,15.804,15.804
					C403.35,283.679,396.274,290.755,387.546,290.755z"/>
			</g>
		</g>
		<g>
			<path style="fill:#FFFFFF;" d="M315.184,74.801l2.48-7.551l2.816,7.551c0,0,5.626,0.957,5.691,1.482
				c0.064,0.513-5.385,2.119-5.385,2.119s-2.287,7.321-3.123,5.663c-0.836-1.658-1.647-5.329-1.647-5.329s-7.084-1.472-7.084-2.194
				C308.932,75.759,315.184,74.801,315.184,74.801z"/>
		</g>
		<g>
			<path style="fill:#FFFFFF;" d="M450.285,238.66l2.48-7.551l2.816,7.551c0,0,5.626,0.957,5.691,1.482
				c0.064,0.513-5.385,2.119-5.385,2.119s-2.287,7.321-3.123,5.663c-0.836-1.658-1.647-5.329-1.647-5.329s-7.084-1.472-7.084-2.194
				C444.033,239.619,450.285,238.66,450.285,238.66z"/>
		</g>
		<g>
			<path style="fill:#FFFFFF;" d="M48.978,154.969l2.48-7.551l2.816,7.551c0,0,5.626,0.957,5.692,1.482
				c0.064,0.513-5.385,2.119-5.385,2.119s-2.287,7.321-3.123,5.663c-0.836-1.658-1.647-5.329-1.647-5.329s-7.084-1.472-7.084-2.194
				C42.726,155.927,48.978,154.969,48.978,154.969z"/>
		</g>
		<g>
			<path style="fill:#FFFFFF;" d="M439.694,337.914l1.382-4.209l1.57,4.209c0,0,3.136,0.533,3.172,0.826
				c0.036,0.286-3.001,1.181-3.001,1.181s-1.275,4.081-1.741,3.157c-0.466-0.924-0.918-2.97-0.918-2.97s-3.949-0.82-3.949-1.223
				C436.209,338.449,439.694,337.914,439.694,337.914z"/>
		</g>
		<g>
			<path style="fill:#FFFFFF;" d="M86.777,393.923l2.48-7.551l2.816,7.551c0,0,5.626,0.957,5.691,1.481
				c0.064,0.513-5.385,2.119-5.385,2.119s-2.287,7.321-3.123,5.663c-0.836-1.658-1.647-5.329-1.647-5.329s-7.084-1.472-7.084-2.194
				C80.525,394.882,86.777,393.923,86.777,393.923z"/>
		</g>
		<g>
			<path style="fill:#FFFFFF;" d="M154.636,75.234l1.382-4.209l1.57,4.209c0,0,3.136,0.533,3.172,0.826
				c0.036,0.286-3.001,1.181-3.001,1.181s-1.275,4.081-1.741,3.157c-0.466-0.924-0.918-2.97-0.918-2.97s-3.949-0.82-3.949-1.223
				C151.152,75.768,154.636,75.234,154.636,75.234z"/>
		</g>
		<g>
			<path style="fill:#FFFFFF;" d="M222.695,183.297l2.48-7.551l2.816,7.551c0,0,5.626,0.957,5.692,1.481
				c0.064,0.513-5.385,2.119-5.385,2.119s-2.287,7.321-3.123,5.663c-0.836-1.658-1.647-5.329-1.647-5.329s-7.084-1.472-7.084-2.194
				C216.443,184.256,222.695,183.297,222.695,183.297z"/>
		</g>
	</g>
</g>
<g id="Speech_Bubble">
	<g>
		<path style="fill:#A0D2F4;" d="M482.246,138.753c-6.385-15.455-21.817-27.513-39.193-31.946l0.122,0.013
			c-12.422-3.956-29.659-5.06-40.799,0.652c-11.14,5.712-19.407,15.469-23.488,26.531c-5.996,16.254-2.302,35.497,9.208,49.567
			c-4.077,3.725-9.158,6.443-14.644,7.729c7.249,3.533,16.077,3.765,23.522,0.824c0.166,0.127,0.317,0.268,0.486,0.392
			c18.667,13.855,47.084,15.193,66.133,3.114C482.64,183.552,490.656,159.111,482.246,138.753z"/>
		<g>
			<path style="fill:#8380FF;" d="M444.192,153.855c4.466-4.393,8.909-4.09,13.482-2.6c4.573,1.491,8.225,5.009,10.488,9.098
				c2.222,4.015,3.154,9.097,0.779,13.031l-11.472-7.92l-7.28,9.743c0,0,10.695,7.723,10.71,8.577
				c0.014,0.854-12.784,6.771-22.58-2.51C428.524,171.992,439.329,158.638,444.192,153.855z"/>
			<path style="fill:#8380FF;" d="M414.335,147.99c-4.466,4.393-8.909,4.09-13.482,2.599s-8.225-5.009-10.488-9.098
				c-2.222-4.015-3.154-9.097-0.779-13.031l11.472,7.92l7.28-9.743c0,0-10.695-7.723-10.71-8.577
				c-0.014-0.854,12.784-6.771,22.58,2.51S419.198,143.206,414.335,147.99z"/>
			<path style="fill:#8380FF;" d="M418.907,136.035c0,0,31.325,22.994,31.897,25.524c0.573,2.53-6.084,8.368-6.084,8.368
				s-33.06-23.837-32.817-26.176C412.146,141.413,418.907,136.035,418.907,136.035z"/>
		</g>
	</g>
</g>
<g id="Line">
	<g>
		<path style="fill:#421B36;" d="M161.914,111.119c-5.274,2.162-10.548,4.325-15.822,6.487c0.285,0.161,0.569,0.323,0.853,0.485
			c-1.994-9.381-3.988-18.761-5.981-28.142c-0.122-0.572-1.003-0.689-1.268-0.166c-5.503,10.839-11.007,21.677-16.51,32.516
			c0.261-0.106,0.522-0.212,0.784-0.319c-12.668-5.341-25.336-10.681-38.003-16.022c-0.604-0.254-1.031,0.542-0.784,1.019
			c6.762,13.017,13.523,26.033,20.285,39.05c0.2-0.348,0.399-0.696,0.599-1.044c-12.785,0.659-25.57,1.318-38.355,1.977
			c-0.622,0.032-1.028,0.992-0.35,1.293c9.699,4.298,19.398,8.597,29.097,12.895c-0.047-0.363-0.094-0.726-0.14-1.09
			c-3.803,4.104-7.607,8.207-11.41,12.311c-0.606,0.654,0.373,1.638,0.981,0.981c3.803-4.104,7.607-8.207,11.41-12.311
			c0.273-0.295,0.288-0.9-0.14-1.09c-9.699-4.298-19.398-8.597-29.097-12.895c-0.117,0.431-0.233,0.862-0.35,1.293
			c12.785-0.659,25.57-1.318,38.355-1.978c0.537-0.028,0.848-0.565,0.599-1.044c-6.762-13.016-13.523-26.033-20.285-39.05
			c-0.261,0.34-0.522,0.679-0.784,1.019c12.668,5.341,25.335,10.681,38.003,16.022c0.265,0.112,0.658-0.072,0.784-0.319
			c5.503-10.839,11.007-21.677,16.51-32.516c-0.423-0.055-0.845-0.11-1.268-0.166c1.994,9.381,3.988,18.761,5.982,28.142
			c0.071,0.336,0.52,0.621,0.853,0.485c5.274-2.162,10.548-4.325,15.822-6.487C163.098,112.123,162.742,110.78,161.914,111.119
			L161.914,111.119z"/>
	</g>
</g>
<g id="Character">
	<g>
		<path style="fill:#8380FF;" d="M222.199,238.973c-5.342,1.1-17.271,9.09-19.998,16.362
			c-2.727,7.272-36.057,131.428-19.695,140.518s131.847,27.28,138.754,20.574c7.082-6.876,18.815-49.018,42.621-98.553
			c19.173-39.894,7.35-56.436-0.787-62.539C344.914,241.7,253.105,232.61,222.199,238.973z"/>
		<path style="fill:#A0D2F4;" d="M331.651,338.087c-0.949-1.17-1.671-2.424-2.204-3.831c-1.064-2.806-0.637-3.927-4.004-2.021
			c-3.995,2.261-7.049,6.919-10.738,9.683c-12.118,9.079-18.113-7.868-20.959-17.403c-0.325-1.089,1.298-1.496,1.678-0.462
			c2.35,6.402,7.869,20.399,16.718,14.968c5.181-3.18,8.336-9.804,13.735-12.616c2.07-1.078,4.072-1.008,5.656,0.785
			c1.022,1.156,1.099,2.664,1.562,4.055c0.944,2.833,2.702,4.956,4.963,6.142c1.247-9.944,1.333-20.009-0.258-22.548
			c-2.403-3.836-31.584-9.117-42.699-7.688c-2.232,0.287-4.029,1.959-4.496,4.16c-1.941,9.149-7.426,37.286-2.728,42.706
			c2.71,3.126,40.283,11.86,45.261,3.013c1.756-3.12,3.206-8.724,4.225-14.867C335.215,341.403,333.258,340.07,331.651,338.087z"/>
		<path style="fill:#FFAE7A;" d="M261.474,237.081c0,0-8.795,20.363,18.128,22.383c26.922,2.02,45.125-15.955,45.125-15.955
			S277.499,234.486,261.474,237.081z"/>
		<g>
			<path style="fill:#421B36;" d="M256.186,236.938c-5.122,3.87-6.216,11.07-3.588,16.728c3.11,6.695,10.165,10.426,17.104,11.866
				c7.351,1.526,15.195,1.46,22.635,0.677c7.205-0.758,14.339-2.4,21.048-5.161c7.41-3.05,14.211-7.436,19.788-13.213
				c0.62-0.643-0.36-1.625-0.981-0.981c-9.323,9.659-21.991,15.147-35.099,17.325c-6.701,1.114-13.56,1.386-20.334,0.899
				c-7.135-0.513-14.623-2.209-19.779-7.524c-2.601-2.681-4.361-6.184-4.401-9.964c-0.038-3.602,1.385-7.242,4.309-9.452
				C257.589,237.604,256.899,236.399,256.186,236.938L256.186,236.938z"/>
		</g>
		<path style="opacity:0.2;fill:#421B36;" d="M333.536,346.873c-0.8,0-1.598,0-2.398,0c-0.089,0-0.178,0-0.267,0
			c0.582-0.671,0.763-0.847,1.024-1.706C333.186,345.204,333.65,345.464,333.536,346.873z M327.142,346.873
			c0.006-0.931-1.099-0.968-1.754-1.415c-0.451,0.434-0.958,0.737-0.911,1.415c0.089,0,0.178,0,0.267,0
			C325.543,346.873,326.342,346.873,327.142,346.873z M313.084,345.414c-0.71,0.242-1.367,0.54-1.393,1.459c0.888,0,1.776,0,2.664,0
			C314.049,346.297,313.731,345.734,313.084,345.414z M320.228,345.918c-0.562-0.371-1.145-0.375-1.817-0.147
			c-0.107,0.361-0.217,0.732-0.327,1.102c0.799,0,1.598,0,2.398,0C320.396,346.553,320.311,346.234,320.228,345.918z
			 M337.265,346.873c0.799,0,1.599,0,2.398,0c-0.071-0.649-0.586-0.912-1.063-1.263c-0.415,0.139-0.818,0.273-1.233,0.412
			c-0.127,0.296-0.247,0.573-0.367,0.851C337.088,346.873,337.176,346.873,337.265,346.873z M330.112,319.973
			c0.054,0.061,0.294-0.042,0.495-0.077c-0.153-0.406-0.274-0.732-0.387-1.032c0.672-0.983,0.604-1.185-0.617-2.451
			c-0.482,0.461-0.925,0.441-1.567,0.275c-0.206,0.549-0.39,1.04-0.567,1.513C327.811,319.405,329.417,319.011,330.112,319.973z
			 M324.273,302.688c0.48,0.93,2.024,0.73,2.872,0.106C328.068,299.791,323.855,300.045,324.273,302.688z M322.985,310.013
			c-2.931-0.073-1.859,4.331,0.802,2.664c0.148-0.296,0.285-0.569,0.412-0.824C323.806,310.679,323.806,310.679,322.985,310.013z
			 M335.578,319.45c0.353-0.183,0.702-0.364,1.088-0.565c0.241-1.201,0.07-2.109-1.16-2.596
			C333.557,316.932,333.543,318.911,335.578,319.45z M328.105,325.545c0.25,0.087,0.539,0.186,0.834,0.289
			c0.498-0.229,0.939-0.482,1.367-0.799c0.058-0.489,0.059-0.783,0.052-1.29C328.888,321.936,326.732,323.795,328.105,325.545z
			 M321.7,284.99c-1.324,1.292,1.691,3.944,2.531,1.367C323.963,284.748,323.147,284.109,321.7,284.99z M330.688,327.397
			c0.114,1.848,2.824,1.789,3.114,0.106c-0.362-0.57-0.685-1.078-1.03-1.618C331.775,325.935,331.376,326.772,330.688,327.397z
			 M340.17,314.681c-0.477-0.514-0.974-1.049-1.462-1.576C335.012,314.007,339.093,318.133,340.17,314.681z M327.065,275.164
			c-0.593-0.277-1.091,0.565-1.74,0.177C321.742,277.568,328.463,279.57,327.065,275.164z M340.649,311.015
			c-0.423,0.992,0.427,1.846,1.248,1.938c0.046-0.966,0.09-1.927,0.132-2.881C341.545,310.072,341.01,310.371,340.649,311.015z
			 M323.901,325.153c0-0.568,0-1.084,0-1.65c-0.527-0.267-1.025-0.516-1.492-0.75C319.904,324.08,322.328,326.768,323.901,325.153z
			 M341.585,319.163c0.05-0.948,0.099-1.893,0.147-2.834c-0.191,0-0.392,0.036-0.613,0.138
			C340.081,317.765,340.553,319.079,341.585,319.163z M318.915,287.697l-0.276,1.945c0.463,0.442,1.05,0.824,1.412,0.98
			C321.482,289.38,320.702,287.265,318.915,287.697z M340.181,321.794c-0.184-0.538-0.28-1.084-0.325-1.62
			c-0.663-0.207-1.209-0.581-1.854-0.288c0.102,0.106,0.204,0.211,0.305,0.316c-0.441,0.225-0.881,0.452-1.321,0.677
			C337.404,322.202,339.275,322.851,340.181,321.794z M317.562,324.322c0.15-1.853-2.48-2.084-2.636-0.225
			C314.816,325.592,317.845,326.303,317.562,324.322z M324.506,327.431c0.598,1.267,0.765,1.377,1.97,1.301
			c0.359-0.525,0.309-1.266,0.876-1.699C327.07,325.482,324.558,325.716,324.506,327.431z M326.748,315.945
			c0.596-1.097,0.585-1.285-0.134-2.506c-1.609-0.093-1.865,0.043-2.359,1.281C325.013,315.278,325.675,316.423,326.748,315.945z
			 M333.723,314.308c-1.617-2.137-4.149-0.143-1.727,1.732C333.094,316.326,334.006,315.426,333.723,314.308z M328.848,303.704
			c-1.841,0.53-1.066,2.673,0.51,2.958C330.95,306.058,330.622,303.57,328.848,303.704z M329.491,310.206
			c-1.685,0.085-2.35,1.623-1.152,2.544C330.206,313.441,331.506,311.172,329.491,310.206z M340.537,330.146
			c-0.16,0.618-0.003,1.193,0.32,1.571c0.04-0.642,0.081-1.284,0.12-1.927C340.825,329.908,340.677,330.028,340.537,330.146z
			 M318.474,322.039c1.113,0.606,1.809-0.039,2.612-0.642C320.856,318.964,317.212,319.48,318.474,322.039z M322.969,316.398
			c-1.188,0.344-1.188,0.344-1.951,1.34C321.208,320.933,325.75,317.755,322.969,316.398z M336.68,311.206
			c-1.015-1.679-2.19-1.237-2.537,0.555C334.465,313.879,337.321,312.992,336.68,311.206z M332.311,265.117
			c0.063-0.047,0.121-0.09,0.183-0.135c-0.274-0.029-0.546-0.055-0.818-0.078C331.861,265.024,332.072,265.106,332.311,265.117z
			 M323.385,265.499c-0.498-0.034-0.986,0.104-1.366,0.341l-0.277,1.952c0.055,0.051,0.11,0.102,0.177,0.152
			C323.811,268.603,324.908,266.94,323.385,265.499z M342.649,286.945c0.002-0.719,0.001-1.423-0.003-2.113
			c-0.695-0.503-1.888-0.091-2.153,0.997C340.586,287.204,341.734,287.566,342.649,286.945z M314.271,320.394l-0.262,1.848
			C314.515,321.493,314.529,320.836,314.271,320.394z M324.58,321.747c0.851,1.146,3.066,0.773,2.524-0.889
			C326.439,318.997,324.01,319.872,324.58,321.747z M313.793,326.28c-0.113-0.127-0.219-0.21-0.32-0.265l-0.415,2.923
			c0.053,0.014,0.091,0.045,0.149,0.055C314.444,328.031,314.671,327.323,313.793,326.28z M340.148,275.726
			c-0.87-0.756-2.752-1.176-2.856,0.471C337.426,278.192,340.453,277.708,340.148,275.726z M340.99,293.369
			c0.618,0.11,1.183,0.07,1.59-0.116c0.014-0.755,0.026-1.498,0.036-2.23C341.553,290.181,339.712,292.38,340.99,293.369z
			 M317.733,304.962c-0.552-0.588-0.688-0.732-1.138-0.932l-0.345,2.428C317.05,306.416,317.698,305.82,317.733,304.962z
			 M326.711,309.6c1.263-1.302-0.97-4.204-2.183-1.87c0.216,0.629,0.423,1.234,0.64,1.87C325.692,309.6,326.167,309.6,326.711,309.6
			z M319.525,300.857c-2.24,0.019-1.244,2.367,0.32,2.588C321.322,303,321.214,300.957,319.525,300.857z M340.665,272.829
			c-0.51,1.363,0.661,1.852,1.617,1.475c-0.072-0.891-0.154-1.712-0.248-2.452C341.469,271.71,340.867,271.969,340.665,272.829z
			 M331.239,301.083c-0.115,0.349-0.237,0.72-0.363,1.099c0.243,0.343,0.468,0.66,0.734,1.034c1.73,0.462,1.779-0.897,1.826-2.237
			c-0.346-0.217-0.706-0.442-1.04-0.65C331.97,300.605,331.613,300.839,331.239,301.083z M320.673,296.433
			c0.371-1.63-1.171-2.56-2.479-1.561C316.86,296.164,319.673,297.459,320.673,296.433z M323.325,297.803
			c-0.665-0.343-1.897-0.765-2.013,0.36c-0.148,1.531,0.937,2.289,2.366,1.795C323.594,299.193,323.96,298.297,323.325,297.803z
			 M325.851,271.692c0.289-0.353,0.664-0.622,0.626-0.8c-0.263-0.758,0.634-0.794,0.648-1.415
			C326.437,267.594,322.094,269.361,325.851,271.692z M341.151,267.975c-0.188-0.41-0.393-0.699-0.621-0.824
			c-0.029-0.016-0.06-0.03-0.089-0.046c-0.025,0.041-0.051,0.083-0.067,0.12C340.581,267.609,340.856,267.846,341.151,267.975z
			 M334.127,330.427c0.22,0.523,0.409,0.969,0.605,1.435c0.743,0.182,0.743,0.182,1.629,0.037
			C337.829,330.168,335.14,328.241,334.127,330.427z M330.956,321.724c0.527,1.109,2.664,0.813,2.32-0.694
			c0.008-0.001,0.015-0.001,0.022-0.001C333.478,318.764,330.245,319.876,330.956,321.724z M334.69,293.533
			c1.306,0.03,3.156-0.728,1.738-2.091C335.114,290.301,333.118,292.654,334.69,293.533z M330.314,299.458
			c-0.247-0.946-0.089-2.344-1.384-2.029c-0.587,0.14-1.457,0.526-1.206,1.274C328.049,299.989,329.156,300.559,330.314,299.458z
			 M337.057,327.613c0.689,1.286,2.534,1.315,3.074-0.232c-0.117-0.321-0.206-0.566-0.31-0.852
			C338.637,325.98,337.55,326.389,337.057,327.613z M318.96,341.607c0.496-0.318,0.902-0.723,1.561-0.608
			c1.698-0.743-1.524-3.503-2.498-0.792C318.47,340.539,318.162,341.287,318.96,341.607z M317.453,299.676
			c0.2-0.564,0.149-1-0.045-1.374l-0.199,1.401C317.291,299.694,317.373,299.685,317.453,299.676z M333.517,282.409
			c-0.374-0.59-0.893-0.863-1.479-0.977c-0.694,0.293-0.94,0.845-1.168,1.548C331.7,284.908,333.365,284.299,333.517,282.409z
			 M334.032,285.103c-0.045,0.81,0.281,1.967,1.215,1.895C338.036,286.698,336.155,283.138,334.032,285.103z M337.358,294.753
			c-0.482,1.338,0.598,1.551,1.507,2.086c1.101-0.52,1.101-0.52,0.991-1.809C338.838,294.476,338.461,293.707,337.358,294.753z
			 M335.602,278.219c-0.483,0.633-1.326,0.626-1.708,1.249C334.528,282.368,339.243,279.23,335.602,278.219z M338.575,300.616
			c-0.688,0.112-1.091,0.461-1.23,1.065C338.251,305.227,342.26,301.258,338.575,300.616z M340.53,305.227
			c0.26,0.35,0.468,0.631,0.711,0.962c0.301-0.099,0.628-0.074,0.953-0.083c0.027-0.68,0.053-1.356,0.078-2.026
			C341.458,303.645,340.487,303.846,340.53,305.227z M321.031,282.98c-0.35-0.771-0.364-0.792-1.239-1.452l-0.354,2.492
			C319.986,284.076,320.621,283.778,321.031,282.98z M323.672,305.868c0.389-1.618-0.552-1.856-1.922-2.071
			c-0.252,0.488-0.482,0.939-0.698,1.357C321.549,305.934,323.326,307.129,323.672,305.868z M328.403,293.599
			c0.662-0.348,2.035-0.327,1.92-1.179c-0.406-0.755-0.964-1.912-1.984-1.26C327.422,292.513,327.427,292.738,328.403,293.599z
			 M339.528,269.23c-0.927-0.766-2.755-0.069-2.017,1.238C338.118,272.347,340.888,270.762,339.528,269.23z M311.034,343.182
			l-0.175,1.232C311.322,344,311.291,343.556,311.034,343.182z M342.417,299.794c0.023-0.739,0.043-1.468,0.063-2.192
			c-0.633-0.289-1.367,0.505-2.329,1.252C340.693,299.585,341.649,299.975,342.417,299.794z M323.627,291.717
			c-1.416-0.936-2.706-0.263-2.313,1.449C322.539,294.404,324.209,293.232,323.627,291.717z M332.573,307.082
			c-2.69,0.179-1.601,1.8,0.052,2.734C333.992,309.424,333.667,307.508,332.573,307.082z M321.347,279.932
			c0.453,0.855,1.465,0.731,2.252,0.573C325.515,279.566,321.857,276.539,321.347,279.932z M330.845,333.716
			c0.184,0.39,0.365,0.77,0.534,1.124c0.5,0.107,0.918,0.196,1.299,0.279C334.874,333.379,332.43,331.425,330.845,333.716z
			 M315.663,310.592l-0.25,1.759c0.89,0.454,1.487,0.315,2.384-0.479C317.69,310.671,316.477,310.255,315.663,310.592z
			 M323.24,274.388c0.156-0.689,0.306-1.346,0.462-2.031c-0.566-0.519-1.122-0.579-1.742-0.56
			C320.554,272.975,321.575,274.442,323.24,274.388z M320.723,275.821c-0.022-0.062-0.066-0.106-0.098-0.16l-0.17,1.195
			C320.648,276.556,320.762,276.194,320.723,275.821z M336.074,344.549c0.84-0.909,1.004-2.183-0.532-2.236
			C332.872,342.096,334.643,345.72,336.074,344.549z M333.158,288.846c-0.401-0.204-0.076-0.714-0.609-0.962
			c-0.613,0.193-1.364,0.23-1.617,1.06c0.585,0.838,0.989,1.883,2.229,1.433c0.182-0.262,0.379-0.543,0.624-0.893
			C333.57,289.256,333.406,288.97,333.158,288.846z M336.716,298.66c-0.228-0.919-1.133-1.103-1.997-1.172
			c-0.334,0.8-0.334,0.8-0.852,1.296C334.66,300.006,336.534,300.602,336.716,298.66z M328.393,280.586
			c0.54-0.037,1.007-0.068,1.448-0.098c0.276-0.418,0.516-0.78,0.833-1.26c-0.717-0.578-1.433-0.785-2.227-0.824
			c-0.325,0.402-0.622,0.771-0.942,1.169C327.801,279.895,328.12,280.263,328.393,280.586z M331.313,277.417
			c1.428,0.128,2.652,0.017,2.176-1.695C331.962,274.868,330.295,275.53,331.313,277.417z M326.122,264.748
			c-0.194,0.005-0.384,0.01-0.568,0.016c0.097,0.049,0.21,0.088,0.343,0.115C325.981,264.836,326.047,264.792,326.122,264.748z
			 M325.492,287.615c-0.706,0.429-0.31,1.219-0.799,1.678c0.777,1.66,2.203,1.267,2.442-0.403
			C326.867,288.036,326.187,287.799,325.492,287.615z M334.861,323.271c-1.483,0.108-0.182,1.519-0.125,2.262
			c0.937-0.021,1.424-0.261,2.207-1.096C336.736,323.478,335.687,323.395,334.861,323.271z M316.293,341.92
			c-0.519,0.646-1.241,1.058-1.366,1.828c0.532,0.442,0.991,0.825,1.48,1.233C318.324,344.288,317.169,343.065,316.293,341.92z
			 M322.915,336.223c-0.524-1.175-1.549,0.107-1.561,0.934c0.552,1.469,3.547,1.206,2.696-0.533
			C323.667,336.525,323.059,336.701,322.915,336.223z M322.879,329.277c-1.9,0.597-1.946,2.039-0.118,2.72
			c0.52-0.434,1.002-0.869,1.446-1.457C323.758,330.114,323.353,329.727,322.879,329.277z M330.327,286.004
			c-0.231-0.444-0.449-0.862-0.668-1.285c-1.299-0.359-1.414-0.281-1.899,1.3C328.055,287.464,329.85,287.167,330.327,286.004z
			 M339.63,289.74c0.059-0.457,0.119-0.926,0.182-1.422c-0.324-0.171-0.629-0.334-0.982-0.52c-0.839,0.262-1.422,0.676-1.78,1.371
			C338.197,290.344,338.244,290.353,339.63,289.74z M334.167,304.376c0.321,0.72,0.616,1.383,0.951,2.135
			c0.744-0.466,1.482-0.622,1.913-1.359C336.402,304.031,335.219,303.433,334.167,304.376z M326.995,294.748
			c-0.507-0.647-1.683-0.702-2.065,0.132c0.081,0.189,0.166,0.384,0.254,0.585c-0.118,0.19-0.232,0.373-0.417,0.67
			C325.728,297.849,327.57,296.064,326.995,294.748z M326.735,281.707c-1.211-0.752-2.063,0.365-1.929,1.558
			C325.758,284.713,327.983,283.338,326.735,281.707z M338.689,306.937c-1.885,0.401-1.577,2.083-0.047,2.695
			c0.636-0.266,1.161-0.546,1.419-1.136C339.549,307.996,338.865,307.767,338.689,306.937z M332.498,268.722
			c-3.488,0.541,0.587,4.624,1.07,1.024c-0.082,0.056-0.165,0.113-0.246,0.169C333.05,269.521,332.777,269.126,332.498,268.722z
			 M312.556,339.06c-0.195,0.335-0.406,0.7-0.588,1.011c0.156,0.544,0.284,0.995,0.419,1.465c1.091-0.056,1.75-0.656,2.244-1.509
			C313.915,339.332,313.915,339.332,312.556,339.06z M337.432,282.577c0.182,0.378,0.365,0.759,0.571,1.186
			C341.693,284.616,339.408,279.434,337.432,282.577z M336.745,266.773c-0.051-1.246-3.452-1.452-2.559,0.652
			C335.049,268.006,336.684,268.08,336.745,266.773z M320.133,307.138c-1.02,0.079-3.152,1.557-1.377,2.218
			C320.282,309.838,321.581,308.243,320.133,307.138z M328.87,274.688c1.255-0.505,1.469-1.386,0.818-2.499
			C327.667,271.536,327.41,273.733,328.87,274.688z M333.542,339.895c-0.209-1.027-2.121-0.812-2.664-0.167
			C331.839,341.328,333.338,342.695,333.542,339.895z M340.77,279.975c0.721,0.292,1.348,0.381,1.808,0.317
			c-0.018-0.683-0.039-1.346-0.064-1.985c-0.127-0.108-0.268-0.218-0.427-0.331C341.382,278.462,340.836,278.987,340.77,279.975z
			 M313.155,335.418c1.359-0.3,1.736-2.268,0.171-2.532c-0.276,0.104-0.57,0.215-0.877,0.33l-0.182,1.277
			C312.563,334.83,312.904,335.092,313.155,335.418z M315.4,318.789c0.875,0.778,1.748,0.16,1.857-0.873
			C316.753,315.776,313.721,317.245,315.4,318.789z M316.154,329.517c-0.962,0.158-1.039,0.874-1.178,1.654
			c0.4,0.345,0.891,0.589,1.431,0.783c0.37-0.256,0.724-0.499,1.158-0.798C317.371,330.23,316.668,329.929,316.154,329.517z
			 M335.2,274.49c0.454-0.247,0.873-0.475,1.287-0.7c-0.048-0.584-0.09-1.093-0.137-1.654c-0.881,0.15-1.835-0.117-2.393,0.891
			C334.269,273.532,334.474,274.128,335.2,274.49z M325.668,338.998c-0.279-0.415-0.476-0.358-1.117,0.154
			c0.214,1.418,0.32,2.056,1.931,2.165C328.022,340.394,326.292,339.801,325.668,338.998z M325.485,332.934
			c-2.227,1.553,1.035,3.035,1.935,1.019C327.019,332.977,326.149,333.118,325.485,332.934z M338.52,339.258
			c-2.223,0.44-0.71,2.131,0.748,2.324C340.004,340.852,339.874,338.876,338.52,339.258z M321.367,343.583
			c0.358,0.673,1.121,0.327,1.544,0.666c0.457-0.245,0.839-0.449,1.361-0.728C323.658,341.888,321.727,341.722,321.367,343.583z
			 M341.316,324.06c-0.168,0.049-0.324,0.095-0.496,0.145c0,0.456,0,0.878,0,1.307c0.14,0.036,0.272,0.07,0.406,0.104
			C341.256,325.097,341.287,324.578,341.316,324.06z M328.499,338.115c0.251,0,0.553,0,0.828,0c0.4-0.431,0.776-0.839,1.147-1.239
			c-0.493-0.749-1.207-0.99-2.016-1.073C327.812,336.617,328.202,337.285,328.499,338.115z M330.817,295.313
			c0.891,0.391,0.802,1.799,1.896,1.51C334.483,295.899,331.783,293.247,330.817,295.313z M328.16,343.774
			c0.733,0.718,2.509,1.379,2.451-0.147C330.144,342.109,328.47,342.088,328.16,343.774z M316.345,336.127
			c-2.424-0.044-1.451,2.063,0.468,2.25C317.919,337.572,316.658,336.905,316.345,336.127z M330.342,266.838
			c-0.256-0.482-0.477-0.901-0.694-1.308C327.107,265.122,327.695,269.226,330.342,266.838z M334.559,337.659
			c1.187,1.007,1.679,0.321,2.373-0.665C336.408,335.589,333.82,336.288,334.559,337.659z M339.296,332.648
			c-0.89,0.247-1.749,0.068-1.888,1.264c0.436,0.364,0.723,0.822,1.243,1.041c0.42-0.28,0.809-0.538,1.235-0.822
			C339.526,333.621,339.374,333.257,339.296,332.648z M319.459,316.343c1.555-1.514,2.031-3.036-0.771-2.282
			C318.905,315.058,318.323,315.796,319.459,316.343z M330.001,332.227c0.185-1.077,0.14-2.008-0.597-2.801
			c-1.071,0.598-1.071,0.598-1.228,1.371C328.667,331.498,329.167,331.9,330.001,332.227z M319.815,328.754
			c1.556-0.343,0.024-3.411-0.842-2.233c0.105,0.176,0.214,0.356,0.319,0.531c-0.181,0.199-0.352,0.387-0.545,0.598
			C319.098,328.013,319.423,328.348,319.815,328.754z M318.874,334.38c0.553-0.658,1.27,0.005,1.797-0.516
			c-0.118-0.685-0.633-0.872-1.087-1.155C318.907,332.893,317.637,334.176,318.874,334.38z M341.173,323.312
			c0.076,0.065,0.132,0.091,0.18,0.1c0.005-0.091,0.01-0.182,0.015-0.274C341.307,323.179,341.247,323.245,341.173,323.312z
			 M314.354,346.873c-0.888,0-1.776,0-2.664,0c-0.183,1.055,0.989,1.438,1.871,1.38c0.617-0.188,0.746-0.898,1.059-1.38
			C314.532,346.873,314.443,346.873,314.354,346.873z M320.482,346.873c-0.8,0-1.599,0-2.398,0c-0.089,0-0.178,0-0.267,0
			c0.326,1.589,2.834,1.773,3.197,0C320.837,346.873,320.659,346.873,320.482,346.873z M325.209,348.184
			c1.584,0.257,1.967-0.152,1.933-1.311c-0.8,0-1.599,0-2.398,0C324.759,347.362,324.813,347.838,325.209,348.184z M338.452,348.252
			c0.45-0.402,1.073-0.547,1.358-1.067c0.008-0.104,0.015-0.207,0.023-0.312c-0.057,0-0.113,0-0.17,0c-0.799,0-1.599,0-2.398,0
			C337.531,347.469,338.123,347.621,338.452,348.252z M332.556,347.969c0.352-0.395,0.666-0.746,0.98-1.096c-0.8,0-1.598,0-2.398,0
			C331.186,347.6,332.044,347.641,332.556,347.969z M332.486,390.156c-1.008,0.412-2.117,0.868-1.153,2.013
			c-0.165,0.241-0.284,0.414-0.441,0.644C332.958,394.346,334.917,390.882,332.486,390.156z M327.402,353.307
			c-0.457-0.882-1.843-2.427-2.513-0.958c0.106,0.865-0.012,1.073-0.337,1.917C325.73,355.268,327.016,354.885,327.402,353.307z
			 M332.922,397.217c-0.241-0.136-0.519-0.25-0.879-0.299c-0.785-0.037-1.132,0.561-1.137,1.21l0.681,0.383
			C331.587,398.511,332.152,398.133,332.922,397.217z M317.33,355.686c-1.169-1.334-2.001-0.284-2.66,0.881
			C315.601,358.501,318.905,357.855,317.33,355.686z M307.974,378.688c-0.314-0.839-0.99-1.356-1.783-1.402l-0.328,2.311
			C306.677,380.156,307.816,380.095,307.974,378.688z M320.366,371.323c-1.255-0.75-1.933,0.554-2.555,1.453
			c1.319,1.552,1.956,1.493,3.111-0.158C320.734,372.18,320.545,371.741,320.366,371.323z M308.213,366.198
			c-0.082-0.328-0.199-0.588-0.335-0.799l-0.204,1.434C307.875,366.656,308.063,366.452,308.213,366.198z M328.335,389.48
			c1.914,0.183,2.44-0.36,2.153-2.217C329.058,386.313,327.026,387.913,328.335,389.48z M312.526,354.662
			c1.072-0.067,1.423-0.999,2.081-1.457C313.538,350.714,309.693,352.823,312.526,354.662z M334.748,387.308
			c-0.233,0.45-0.498,0.788-0.857,1.213c0.178,1.209,1.18,1.002,2.08,1.212c0.091-0.684,0.189-1.473,0.293-2.352
			C335.973,387.155,335.587,387.185,334.748,387.308z M309.803,374.191c-1.386,0.38-1.34,1.583-0.84,2.734
			C311.071,377.743,312.154,374.758,309.803,374.191z M311.876,366.484c0.569,0.15,0.513,0.995,1.225,1.235
			c0.409-0.324,0.813-0.647,1.207-0.959C314.432,364.288,311.549,363.594,311.876,366.484z M330.975,366.573
			c0.351,0.39,0.67,0.802,1.107,1.069c0.849-0.232,1.246-0.822,1.467-1.598C333.317,363.651,330.845,364.621,330.975,366.573z
			 M309.286,355.487l-0.299,2.103c0.259,0.265,0.604,0.411,1.066,0.422c0.462-0.453,0.917-0.901,1.389-1.365
			C310.884,355.543,309.989,355.067,309.286,355.487z M317.177,349.183c-1.508-0.948-1.965,0.174-2.553,1.401
			C316.079,351.924,318.483,351.39,317.177,349.183z M313.347,377.454c-1.691,0.252-2.003,1.464-1.203,2.507
			c0.423,0.548,1.057,0.201,1.582,0.025C315.175,379.445,313.872,378.226,313.347,377.454z M330.935,379.364
			c0.65,1.542,2.102,1.241,2.845-0.089c-0.128-0.583-0.403-1.056-1.081-1.431C331.988,378.212,329.934,378.13,330.935,379.364z
			 M311.05,349.897c0.016-0.718-0.351-1.065-0.808-1.138l-0.375,2.637C310.605,351.512,311.307,351.047,311.05,349.897z
			 M325.607,384.006c-0.309,0.166-0.811,0.306-1.015,0.658c-0.078,2.384,1.616,2.543,2.801,0.729
			C327.123,384.531,326.492,384.156,325.607,384.006z M334.145,362.415c0.605,1.837,0.696,1.906,2.515,1.752
			c-0.269-0.834,0.06-1.628-0.444-2.374C335.464,361.453,334.441,361.522,334.145,362.415z M330.583,395.189
			c-0.39-0.787-0.822-1.479-1.893-1.531C325.956,394.642,329.702,397.751,330.583,395.189z M327.252,378.369
			c-0.659-1.361-3.574-0.793-1.714,0.574c-0.646,0.592-0.646,0.592-0.357,1.242C326.292,380.573,327.964,379.612,327.252,378.369z
			 M338.215,367.346c0.068-0.786,0.135-1.583,0.204-2.393c-0.694,0.109-1.303,0.789-1.072,1.805
			C337.623,367.045,337.921,367.237,338.215,367.346z M318.889,384.043c-1.257,0.537-0.698,2.034-0.085,2.84
			C321.08,386.022,321.42,384.549,318.889,384.043z M328.699,348.86c-2.445,1.87,0.725,4.401,1.636,1.506
			C329.658,349.441,329.658,349.441,328.699,348.86z M317.122,383.024c0.796-1.695-1.003-3.039-2.267-1.695
			C315.104,382.873,315.431,384.001,317.122,383.024z M320.806,359.754c-0.601-1.652-2.377-1.873-2.672,0.079
			C318.736,361.441,320.223,361.363,320.806,359.754z M308.855,362.019c-0.093,0.619-0.308,1.211,0.063,1.887
			C312.174,364.505,312.054,360.591,308.855,362.019z M312.041,371.731c-0.417,2.166,1.658,2.709,2.508,0.728
			C313.838,370.981,313.31,370.837,312.041,371.731z M316.649,368.054c-0.961,0.056-1.298,0.676-1.683,1.37
			C314.762,371.575,320.117,370.097,316.649,368.054z M332.095,361.051c0.536-0.151,0.984-0.276,1.393-0.391
			c0.193-0.765-0.274-1.239-0.592-1.944c-0.879-0.3-2.023-0.221-2.122,1.047C331.188,360.167,331.651,360.617,332.095,361.051z
			 M322.692,348.883c-0.492,0.136-0.905,0.248-1.293,0.354c-0.219,1.529,0.036,1.655,1.406,1.93c0.422-0.273,0.925-0.6,1.423-0.923
			C324.133,349.172,323.195,349.261,322.692,348.883z M322.167,389.609c1.865,0.766,2.231-1.198,0.929-2.31
			C321.643,387.599,320.047,388.891,322.167,389.609z M312.364,384.102c-1.633,3.02,2.472,3.364,1.853,0.271
			C313.217,384.01,313.217,384.01,312.364,384.102z M309.02,370.325c0.57,0,1.082,0,1.552,0
			C313.136,367.665,306.73,367.395,309.02,370.325z M334.092,394.437c0.068,0.255,0.137,0.507,0.225,0.747
			c0.226-0.398,0.452-0.836,0.673-1.318C334.673,393.946,334.359,394.125,334.092,394.437z M317.453,387.586
			c-0.59-0.23-1.171-0.59-1.918-0.26c-0.827,1.148,0.232,1.457,0.517,2.44l0.394,0.222
			C317.269,389.589,317.769,388.558,317.453,387.586z M335.908,355.242c-1.621,0.58-1.81,0.931-1.123,2.359
			C336.724,358.138,337.843,356.19,335.908,355.242z M320.716,352.943c-0.652-0.661-1.378-0.796-2.183-0.557
			c-0.915,1.478-0.083,1.864,1.207,2.25C320.673,354.733,320.51,353.639,320.716,352.943z M321.633,374.872c0,0.63,0,1.186,0,1.741
			C324.79,377.713,324.564,373.046,321.633,374.872z M328.007,382.311c1.161,0.765,1.601,1.691,2.354,0.054
			C330.096,380.381,327.43,379.82,328.007,382.311z M325.116,390.752c-0.808,0.057-0.577,0.935-0.599,1.541
			c1.524,1.146,3.656,0.173,2.102-1.462C326.176,390.433,325.631,390.874,325.116,390.752z M320.705,392.132
			c0.128-1.833-1.461-2.104-2.393-1.094l2.183,1.229C320.565,392.222,320.635,392.183,320.705,392.132z M330.925,385.839
			c0.57,0.699,1.307,0.558,2.125,0.467c0.214-0.696,0.24-1.286-0.004-1.891C331.686,383.379,331.003,384.506,330.925,385.839z
			 M322.293,355.22c-0.313,0.311-0.645,0.639-0.977,0.967c0.253,0.482,0.466,0.892,0.726,1.388
			C324.305,358.155,324.593,355.341,322.293,355.22z M335.431,370.523c1.165-0.19,1.718-0.788,0.787-1.763
			C335.293,366.657,332.682,369.912,335.431,370.523z M307.053,373.639c0.051-0.504,0.584-0.678,0.904-0.975
			c-0.331-0.788-0.409-0.956-0.939-1.212l-0.369,2.6C306.835,374.035,306.988,373.923,307.053,373.639z M306.48,384.377l1.48,0.833
			C308.121,384.431,307.284,384.18,306.48,384.377z M322.232,361.716c-1.665,1.118,0.132,3.016,1.635,1.902
			C324.273,362.545,323.24,361.298,322.232,361.716z M332.283,354.905c1.83-1.001,1.408-3.481-0.865-2.517
			c-0.05,0.417-0.09,0.757-0.13,1.097c0.577,0.267,0.167,0.655,0.108,1.047C331.704,354.662,332.017,354.794,332.283,354.905z
			 M332.503,371.243c-0.374,0.182-0.799,0.388-1.319,0.64c-0.258,1.871,0.355,2.209,2.016,1.61c0.096-0.305,0.174-0.554,0.273-0.875
			C332.948,372.344,333.195,371.554,332.503,371.243z M336.835,381.858c-0.397-0.405-0.728-0.741-0.993-1.01
			C332.309,381.272,334.799,385.152,336.835,381.858z M335.779,374.443c-0.417,0.033-0.742-0.117-1.07,0.158
			c-0.028,0.651-0.54,1.259-0.21,2.141c0.827,0.133,2.681,0.051,2.092-1.17C336.163,375.291,335.932,374.946,335.779,374.443z
			 M308.479,381.678c0.733,0.444,0.563,1.62,1.667,1.766C312.013,381.642,309.711,379.47,308.479,381.678z M338.77,360.703
			c0.058-0.716,0.116-1.44,0.175-2.17c-0.163-0.049-0.337-0.091-0.531-0.118c-0.481,0.24-0.793,0.592-1.13,1.063
			c0.412,0.478,0.764,0.887,1.152,1.336C338.549,360.777,338.659,360.741,338.77,360.703z M334.598,349.451
			c-0.607,1.879,1.804,2.349,2.344,0.563C336.424,349.3,335.117,348.179,334.598,349.451z M337.653,352.377
			c-0.076,0.445-0.145,0.858-0.209,1.231c0.699,0.566,0.768,0.607,1.852,0.45c0.046-0.598,0.092-1.195,0.138-1.799
			C338.859,352.092,338.273,352.312,337.653,352.377z M325.046,371.968c-0.021,0.839-0.17,1.955,0.92,2.108
			c0.25-0.147,0.547-0.321,0.828-0.484c-0.022-0.943,0.46-1.926-0.719-2.34C325.755,371.475,325.404,371.72,325.046,371.968z
			 M326.485,358.77c-0.457,0.048-0.837,0.087-1.251,0.128c-0.236,0.254-0.577,0.522-0.687,0.878
			c1.182,1.296,1.528,1.351,2.901,0.014C327.179,359.301,326.839,358.988,326.485,358.77z M337.699,373.177
			c0.05-0.55,0.1-1.104,0.151-1.67C337.15,371.874,337.211,372.219,337.699,373.177z M319.417,367.169
			c0.604-0.256,1.346-0.229,1.584-1.088c-0.263-0.404-0.586-0.791-1.128-1.021C318.124,365.491,317.445,366.258,319.417,367.169z
			 M322.967,393.658l0.275,0.155C323.157,393.75,323.066,393.698,322.967,393.658z M314.34,360.323
			c0.056-1.471-1.413-1.685-2.298-0.897C311.735,361.328,313.585,361.299,314.34,360.323z M323.179,368.169
			c-0.679,0.098-1.323,0.053-1.813,0.592c-0.238,0.771,0.334,1.148,0.785,1.639c0.597-0.52,1.444-0.591,1.773-1.444
			C323.679,368.697,323.415,368.418,323.179,368.169z M329.367,377.027c1.581-0.754,0.058-2.397-1.188-2.324
			c-0.184,0.366-0.359,0.712-0.569,1.13C328.174,376.362,328.74,376.761,329.367,377.027z M321.583,382.267
			c0.198,1.037,1.712,1.214,2.29,0.297C324.357,381.43,321.387,380.661,321.583,382.267z M317.249,375.839
			c-0.13-0.638-0.149-1.112-0.544-1.614c-0.541,0.231-1.012,0.432-1.462,0.625C314.725,376.12,316.455,377.043,317.249,375.839z
			 M328.146,362.113c-0.038,0.333-0.067,0.594-0.113,0.995c0.7,0.21,1.321,0.931,2.003,0.711c-0.005-0.301-0.231-0.614-0.033-0.967
			C330.379,361.676,328.816,361.376,328.146,362.113z M329.46,370.395c0.535-0.515,0.826-0.755,0.858-1.468
			c-0.512-0.117-0.928-0.212-1.365-0.311C327.269,369.358,327.775,370.553,329.46,370.395z M316.681,361.769
			c-0.487,0.62-0.798,0.865-1.507,1.129c0.269,0.5,0.596,0.821,1.02,1.07C317.655,363.797,318.092,362.563,316.681,361.769z
			 M329.169,355.512c-3.149,0.384-0.103,3.1,0.935,0.967C329.786,356.15,329.486,355.84,329.169,355.512z M320.465,378.364
			c-1.224-1.573-2.963,0.957-0.355,1.018C320.226,379.047,320.351,378.69,320.465,378.364z M325.104,367.064
			c0.6-0.461,1.256-0.156,1.689-0.817C326.085,365.102,324.618,365.746,325.104,367.064z M318.251,379.211
			c-0.091,0.147-0.15,0.245-0.21,0.342c0.19,0.192,0.308,0.062,0.466-0.085C318.434,379.395,318.361,379.32,318.251,379.211z
			 M319.524,380.333c-0.077-0.177-0.164-0.238-0.35-0.152C319.277,380.352,319.308,380.517,319.524,380.333z"/>
		<g>
			<g>
				<path style="fill:#421B36;" d="M265.486,110.002c-4.47,1.815-8.621,4.852-10.82,9.147c-1.996,3.9-2.221,8.525-1.394,12.827
					c0.827,4.303,2.636,8.349,4.561,12.284l21.719-37.515C274.78,107.459,269.956,108.187,265.486,110.002z"/>
				<path style="fill:#421B36;" d="M276.699,109.586c0.683-4.521,3.531-8.549,7.239-11.224c3.708-2.674,8.214-4.085,12.751-4.648
					c11.966-1.486,24.527,3.001,32.841,11.734c4.44,4.663,7.656,10.363,11.939,15.171c4.283,4.808,9.363,9.734,15.792,9.385
					l-8.4,8.996l-12.395,4.59"/>
				<path style="fill:#421B36;" d="M334.278,123.031c6.233,6.161,9.824,7.282,19.196,6.791c4.366-0.228,9.334,0.992,11.862,4.559
					c1.754,2.475,1.655,6.106-0.232,8.482c-1.887,2.376-5.401,3.295-8.209,2.148c3.355,1.757,6.681,3.85,8.816,6.978
					c2.134,3.128,2.805,7.518,0.73,10.686c-2.075,3.168-7.285,4.064-9.709,1.155c2.814,3.563,0.023,9.248-4.167,10.997
					c-4.19,1.749-8.96,0.786-13.392-0.201"/>
				<path style="fill:#421B36;" d="M335.386,120.41c-3.094-2.832-6.925-4.697-10.475-6.931c-4.739-2.983-9.01-6.648-13.636-9.804
					c-4.626-3.156-9.749-5.844-15.31-6.505c-5.56-0.661-13.344,2.975-16.914,7.289c-2.337,2.824-5.119,7.688-3.588,11.019
					l64.706,16.023C340.801,127.355,338.48,123.242,335.386,120.41z"/>
				<g>
					<path style="fill:#FFAE7A;" d="M334.833,136.833c-13.048-30.63-55.05-36.3-75.829-10.286
						c-6.571,8.227-11.261,20.037-14.537,36.467c-9.138,45.842,29.474,54.409,29.474,54.409l-1.84,38.775l43.342-6.35l-1.47-36.617
						c8.155-5.95,26.128-36.507,23.34-62.203C336.78,146.113,336.744,141.319,334.833,136.833z"/>
				</g>
				<path style="fill:#421B36;" d="M308.299,108.447c24.904,4.243,46.007,30.953,45.11,46.446
					c-2.556,44.161-39.436,58.339-39.436,58.339c12.272-13.657,18.551-24.256,20.028-43.024c0,0-20.008,4.718-13.513-11.448
					c3.378-8.407,4.978-12.752,5.771-20.332c2.558-24.45-37.748-28.806-37.748-28.806S289.254,105.202,308.299,108.447z"/>
				<g>
					<path style="fill:#421B36;" d="M265.237,145.441c-0.402,1.665,0.489,3.309,1.99,3.672c1.501,0.362,3.044-0.694,3.446-2.359
						c0.402-1.665-0.489-3.309-1.99-3.672C267.182,142.719,265.639,143.775,265.237,145.441z"/>
				</g>
				<g>
					<path style="fill:#421B36;" d="M294.458,152.394c-0.402,1.665,0.489,3.309,1.99,3.672c1.501,0.363,3.044-0.694,3.446-2.359
						c0.402-1.665-0.489-3.309-1.99-3.672C296.403,149.673,294.86,150.729,294.458,152.394z"/>
				</g>
				<g>
					<g>
						<path style="fill:#421B36;" d="M318.012,142.545c-2.44-2.357-6.14-4.133-9.351-5.116c-2.985-0.913-5.938-0.672-8.968-1.077
							c-1.748-0.234-1.586-2.81-0.09-3.278c7.528-2.356,15.156,2.682,19.699,8.131C320.048,142.1,318.895,143.398,318.012,142.545
							L318.012,142.545z"/>
					</g>
				</g>
				<g style="opacity:0.2;">
					<path style="fill:#421B36;" d="M293.112,169.327c-0.596,2.469,2.786,5.404,7.555,6.556c4.768,1.152,9.118,0.083,9.714-2.386
						c0.596-2.469-2.786-5.404-7.555-6.556C298.057,165.79,293.708,166.858,293.112,169.327z"/>
				</g>
				<g style="opacity:0.2;">
					<path style="fill:#421B36;" d="M249.141,155.394c-0.596,2.469,2.786,5.404,7.555,6.556s9.118,0.083,9.714-2.386
						c0.596-2.469-2.786-5.404-7.555-6.556C254.086,151.857,249.737,152.925,249.141,155.394z"/>
				</g>
				<g>
					<g>
						<path style="fill:#FFAE7A;" d="M334.085,169.866c6.296-1.815,9.619,0.557,11.496,2.81c1.876,2.253,2.658,5.266,2.673,8.198
							c0.026,4.874-2.137,9.885-6.182,12.605c-4.045,2.721-9.974,2.661-13.525-0.679L334.085,169.866z"/>
					</g>
					<g>
						<g>
							<path style="fill:#421B36;" d="M340.243,184.152c-0.661-0.699-2.448-1.405-3.356-1.625c-1.513-0.367-2.639,0.16-3.919,0.892
								c-1.5,0.857-3.186-1.107-1.925-2.396c1.525-1.559,3.987-2.1,6.074-1.538c0.99,0.267,2.041,0.835,2.723,1.612
								c0.813,0.927,0.662,1.653,0.877,2.766C340.766,184.121,340.458,184.38,340.243,184.152L340.243,184.152z"/>
						</g>
					</g>
				</g>
				<g>
					<g>
						<path style="fill:#421B36;" d="M269.305,125.131c6.451-4.533,15.08-1.371,17.255,6.037
							c3.055,10.407-4.843,24.177-12.302,30.925c-1.714,1.551-3.984-0.678-2.565-2.467c4.579-5.77,9.232-11.605,11.164-18.888
							c1.343-5.063,1.521-11.314-4.184-13.885c-2.379-1.072-6.267-1.041-8.792-0.434C269.086,126.611,268.637,125.6,269.305,125.131
							L269.305,125.131z"/>
					</g>
				</g>
				<path style="fill:#421B36;" d="M320.489,158.76c-2.126,4.998-4.01,14.615-4.211,20.043c-0.068,1.847,0.137,3.819,1.267,5.282
					c1.13,1.463,3.44,2.128,4.883,0.972c0.496-0.398,2.058-1.346,2.521-1.782c5.918-5.558,7.376-9.63,11.139-15.83"/>
			</g>
			<g style="opacity:0.6;">
				<path style="fill:#8380FF;" d="M319.928,139.796c6.624,2.676,11.84,3.757,4.834,16.661c-0.805,1.483-3.358,6.658-4.872,8.13
					c-7.191,6.988-13.866,6.982-23.653,2.532c-2.182-0.992-4.166-2.411-5.789-4.174c-6.468-7.024,1.716-22.873-3.286-24.768
					c-0.918-0.348-1.94,0.097-2.502,0.902c-4.965,7.123-12.37,12.528-20.703,15.001c-2.574,0.764-5.285,1.089-7.931,0.636
					c-8.797-1.506-10.268-9.054-9.46-15.518c0.285-2.277,0.936-5.946,1.962-9.704c1.739-6.365,8.054-10.322,14.549-9.158
					c5.78,1.036,14.469,3.349,27.415,8.158C304.522,133.704,313.845,137.339,319.928,139.796z"/>
			</g>
			<path style="fill:#8380FF;" d="M327.542,148.971l18.038,23.705c-3.26-3.061-6.959-4.482-11.578-2.467l-10.559-11.717
				L327.542,148.971z"/>
			<g>
				<path style="fill:#421B36;" d="M269.331,174.781c2.769-1.406,6.007-1.679,8.98-0.799c0.858,0.254,1.225-1.085,0.369-1.338
					c-3.337-0.987-6.951-0.634-10.049,0.939C267.834,173.987,268.536,175.184,269.331,174.781L269.331,174.781z"/>
			</g>
			<g>
				<path style="fill:#421B36;" d="M294.38,214.885c-8.897,1.409-16.638,2.637-25.666,1.245c-0.961-0.148-1.38,1.317-0.407,1.475
					c8.124,1.316,18.851,2.017,26.105-2.644C294.454,214.934,294.426,214.878,294.38,214.885L294.38,214.885z"/>
			</g>
			<g>
				<path style="fill:#421B36;" d="M276.398,108.218c7.003-7.977,16.01-15.114,26.912-16.265
					c10.733-1.134,21.476,3.762,26.618,13.407c3.424,6.423,5.438,12.729,12.849,15.351c6.141,2.173,12.807,0.977,18.378-2.147
					c0.719-0.403,0.076-1.503-0.646-1.105c-9.649,5.316-21.314,3.607-26.517-6.747c-4.081-8.12-7.584-14.734-16.466-18.25
					c-15.708-6.217-32.535,2.261-41.299,15.624C276.159,108.188,276.316,108.312,276.398,108.218L276.398,108.218z"/>
			</g>
			<g>
				<path style="fill:#421B36;" d="M279.267,108.496c-5.376-3.24-12.042-5.063-18.023-2.275c-5.265,2.454-8.12,7.917-6.479,13.549
					c0.273,0.935,1.668,0.545,1.455-0.401c-1.431-6.351,2.939-11.429,8.992-12.728c4.834-1.038,9.487,0.343,13.983,2.026
					C279.297,108.705,279.355,108.549,279.267,108.496L279.267,108.496z"/>
			</g>
			<g>
				<path style="fill:#FFFFFF;" d="M298.295,161.134c7.473-1.446,14.947-2.892,22.42-4.338c0.876-0.169,0.505-1.507-0.369-1.338
					c-7.473,1.446-14.947,2.892-22.42,4.338C297.05,159.965,297.421,161.303,298.295,161.134L298.295,161.134z"/>
			</g>
			<g>
				<path style="fill:#FFFFFF;" d="M308.396,155.56c2.166-0.399,4.332-0.798,6.498-1.197c0.369-0.068,0.578-0.515,0.485-0.853
					c-0.107-0.387-0.484-0.553-0.854-0.484c-2.166,0.399-4.332,0.798-6.497,1.197c-0.369,0.068-0.578,0.515-0.485,0.853
					C307.65,155.463,308.027,155.628,308.396,155.56L308.396,155.56z"/>
			</g>
		</g>
		<g>
			<path style="fill:#421B36;" d="M272.716,247.683c0-9.4,0-18.801,0-28.201c0-0.893-1.387-0.894-1.387,0c0,9.4,0,18.801,0,28.201
				C271.329,248.576,272.716,248.577,272.716,247.683L272.716,247.683z"/>
		</g>
	</g>
	<g>
		<path style="fill:#FFAE7A;" d="M104.274,189.036c-0.18,0.541,10.482,19.191,10.482,19.191s-19.153,26.267-18.612,27.71
			c0.541,1.442,25.516,16.588,30.067,13.162c4.551-3.426,30.74-42.901,33.398-49.041c3.792-8.761,11.807-56.825,12.448-59.813
			c0.599-2.796-1.298-11.482-8.986-8.586c-4.387,1.652-6.09,8.884-7.722,14.777c-1.591,5.745-8.181,15.4-8.181,15.4l-30.522-1.802
			L104.274,189.036z"/>
		<g>
			<path style="fill:#421B36;" d="M154.681,149.276c-1.837,5.797-2.993,11.768-3.475,17.829c0.115-0.2,0.229-0.399,0.344-0.599
				c-8.765,4.841-14.255,14.658-13.774,24.662c0.043,0.889,1.431,0.894,1.388,0c-0.354-7.355,2.635-14.652,7.964-19.728
				c1.339-1.275,2.813-2.4,4.409-3.334c0.544-0.318,0.847-0.419,1.057-1.001c0.365-1.013,0.236-2.61,0.371-3.691
				c0.586-4.674,1.633-9.28,3.055-13.769C156.289,148.792,154.95,148.427,154.681,149.276L154.681,149.276z"/>
		</g>
		<g>
			<g>
				<g>
					<path style="fill:#421B36;" d="M198.729,163.307c-2.895-0.769-12.23-0.915-12.23-0.915l-1.804-2.857
						c0,0,7.322-9.838,6.011-12.012c-1.31-2.173-11.566-9.713-13.474-9.115c-1.908,0.598-8.191,7.737-8.191,7.737l-3.778-0.911
						c0,0-0.376-10.777-4.713-11.024c-4.338-0.246-13.098,1.663-14.906,2.579c-1.808,0.916-0.355,11.565-0.355,11.565l-3.029,1.942
						l-1.142-0.702c0,0-7.755-6.059-10.313-4.53c-2.558,1.529-9.404,12.498-9.115,14.026c0.289,1.529,8.292,8.663,8.292,8.663
						l-0.966,2.895c0,0-10.093,1.937-10.833,4.706c-0.74,2.769-0.176,14.516,2.756,15.124c2.933,0.608,12.262,0.239,12.262,0.239
						l1.958,2.753c0,0-6.768,10.227-5.34,12.325c1.428,2.098,12.084,9.061,13.956,8.359c1.872-0.702,7.752-8.176,7.752-8.176
						l3.822,0.701c0,0,0.969,10.74,5.314,10.747c4.345,0.007,12.987-2.382,14.742-3.396c1.755-1.014-0.283-11.567-0.283-11.567
						l3.08-2.224c0,0,7.77,5.911,11.1,4.163c3.331-1.748,9.397-11,8.812-12.56c-0.585-1.56-7.49-8.579-7.49-8.579l0.123-0.786
						c2.704-0.457,9.195-1.768,9.899-3.918C201.54,175.835,201.624,164.075,198.729,163.307z M158.214,188.821
						c-7.396-0.777-12.761-7.402-11.984-14.798c0.777-7.396,7.402-12.761,14.798-11.984c7.396,0.777,12.761,7.402,11.984,14.798
						S165.609,189.598,158.214,188.821z"/>
				</g>
			</g>
		</g>
		<g>
			<g>
				<g>
					<path style="fill:#8380FF;stroke:#421B36;stroke-miterlimit:10;" d="M195.397,163.307c-2.895-0.769-12.23-0.915-12.23-0.915
						l-1.804-2.857c0,0,7.322-9.838,6.012-12.012c-1.31-2.173-11.566-9.713-13.474-9.115c-1.908,0.598-8.19,7.737-8.19,7.737
						l-3.778-0.911c0,0-0.376-10.777-4.713-11.024c-4.338-0.246-13.098,1.663-14.906,2.579c-1.808,0.916-0.355,11.565-0.355,11.565
						l-3.029,1.942l-1.142-0.702c0,0-7.755-6.059-10.313-4.53c-2.558,1.529-9.404,12.498-9.115,14.026
						c0.289,1.529,8.292,8.663,8.292,8.663l-0.966,2.895c0,0-10.093,1.937-10.833,4.706c-0.74,2.769-0.176,14.516,2.756,15.124
						c2.933,0.608,12.262,0.239,12.262,0.239l1.958,2.753c0,0-6.768,10.227-5.34,12.325c1.428,2.098,12.084,9.061,13.956,8.359
						c1.872-0.702,7.752-8.176,7.752-8.176l3.822,0.701c0,0,0.969,10.74,5.314,10.747c4.345,0.007,12.987-2.382,14.742-3.396
						c1.755-1.014-0.283-11.567-0.283-11.567l3.08-2.224c0,0,7.77,5.911,11.1,4.163c3.331-1.748,9.397-11,8.812-12.56
						c-0.585-1.56-7.49-8.579-7.49-8.579l0.123-0.786c2.704-0.457,9.195-1.768,9.9-3.918
						C198.208,175.835,198.292,164.075,195.397,163.307z M154.882,188.821c-7.396-0.777-12.761-7.402-11.984-14.798
						c0.777-7.396,7.402-12.761,14.798-11.984c7.395,0.777,12.761,7.402,11.984,14.798
						C168.903,184.232,162.278,189.598,154.882,188.821z"/>
				</g>
			</g>
		</g>
		<path style="fill:#FFAE7A;" d="M106.712,193.884c0,0-5.879-10.234-4.977-15.283c0.901-5.048,2.704-6.13,2.704-6.13
			s-3.065-6.311,0.361-11.719c3.426-5.409,6.88-5.572,6.88-5.572s0.152-13.539,15.838-14.441c0,0,16.728-18.254,21.776-14.467
			c5.048,3.786,1.085,8.23-1.739,11.656c-2.894,3.512-6.696,6.778-6.155,6.597c0.541-0.18,4.507,6.31-4.327,9.556
			c0,0,3.06,6.237-2.89,8.941c-5.95,2.704-17.845,3.139-17.845,3.139l-0.18,1.262c0,0,4.688-0.18,5.048,3.967
			c0.361,4.147-8.674,10.564-8.674,10.564l4.326,8.51L106.712,193.884z"/>
		<g>
			<path style="fill:#421B36;" d="M103.929,174.426c2.259-3.04,5.661-5.112,9.377-5.812c2.038-0.384,4.778-0.433,6.141,1.466
				c1.206,1.681,1.116,4.057-0.038,5.714c-1.154,1.658-2.89,2.454-4.514,3.53c-0.756,0.501-1.544,0.954-2.299,1.456
				c-0.377,0.25-0.795,0.519-0.807,1.021c-0.013,0.579,0.416,1.289,0.642,1.818c0.37,0.867,0.785,1.712,1.222,2.547
				c0.824,1.574,1.728,3.104,2.605,4.648c0.441,0.776,1.641,0.078,1.198-0.7c-0.758-1.333-1.536-2.655-2.263-4.005
				c-0.371-0.689-0.732-1.384-1.068-2.091c-0.194-0.408-0.383-0.819-0.553-1.238c-0.06-0.148-0.358-1.006-0.405-0.775
				c-0.053,0.266,0.081-0.011,0.25-0.102c0.135-0.073,0.266-0.161,0.398-0.24c0.361-0.216,0.724-0.426,1.075-0.657
				c0.683-0.449,1.365-0.871,2.068-1.287c1.355-0.802,2.613-1.794,3.54-3.079c1.681-2.332,1.68-6.163-0.639-8.126
				c-2.449-2.072-5.933-1.673-8.778-0.768c-3.358,1.068-6.255,3.157-8.353,5.98C102.198,174.443,103.402,175.135,103.929,174.426
				L103.929,174.426z"/>
		</g>
		<g>
			<path style="fill:#421B36;" d="M109.249,169.212c0.34,2.27,2.378,4.025,4.609,4.301c2.398,0.297,4.749-1.113,5.94-3.152
				c0.451-0.773-0.748-1.472-1.198-0.7c-0.923,1.581-2.739,2.716-4.612,2.481c-1.715-0.215-3.146-1.596-3.401-3.298
				c-0.055-0.37-0.524-0.577-0.853-0.485C109.337,168.469,109.194,168.838,109.249,169.212L109.249,169.212z"/>
		</g>
		<g>
			<path style="fill:#421B36;" d="M110.103,155.917c4.722-1.931,9.811-3.222,14.917-3.47c2.642-0.128,5.321,0.027,7.878,0.741
				c1.089,0.304,2.618,0.72,3.265,1.744c0.21,0.333,0.332,0.792,0.469,1.174c1.035,2.87-1.385,5.041-3.82,6.273
				c-2.047,1.036-4.595,1.158-6.827,1.566c-1.719,0.314-3.439,0.628-5.159,0.937c-0.667,0.12-1.333,0.24-2,0.356
				c-0.219,0.038-0.91,0.149-0.811,0.139c-0.88,0.087-0.889,1.476,0,1.388c2.655-0.263,5.318-0.929,7.94-1.408
				c2.837-0.518,5.779-0.713,8.309-2.184c2.539-1.476,4.83-4.131,3.782-7.238c-0.397-1.177-0.861-2.204-1.956-2.923
				c-2.081-1.367-4.933-1.739-7.361-1.917c-6.418-0.469-13.079,1.067-18.995,3.486C108.919,154.912,109.275,156.255,110.103,155.917
				L110.103,155.917z"/>
		</g>
		<g>
			<path style="fill:#421B36;" d="M129.653,151.813c-1.972,1.231-2.526,3.879-1.403,5.872c1.251,2.222,3.916,3.054,6.315,2.513
				c1.321-0.298,2.648-0.982,3.384-2.155c0.476-0.758-0.724-1.456-1.198-0.7c-0.601,0.957-1.86,1.431-2.931,1.59
				c-1.168,0.174-2.406-0.061-3.356-0.785c-0.803-0.612-1.398-1.562-1.419-2.589c-0.02-1.007,0.442-2.008,1.308-2.549
				C131.109,152.54,130.413,151.339,129.653,151.813L129.653,151.813z"/>
		</g>
		<g>
			<path style="fill:#421B36;" d="M127.145,141.454c4.923-0.271,9.784,1.132,13.812,3.975c0.731,0.516,1.425-0.687,0.7-1.198
				c-4.207-2.969-9.372-4.447-14.513-4.164C126.257,140.115,126.251,141.503,127.145,141.454L127.145,141.454z"/>
		</g>
		<g>
			<path style="fill:#421B36;" d="M135.084,141.777c-1.911,1.736-1.472,4.837,0.45,6.362c2.259,1.792,5.309,1.39,7.632-0.057
				c0.756-0.471,0.061-1.672-0.7-1.198c-1.772,1.103-4.087,1.592-5.902,0.305c-1.424-1.009-1.877-3.178-0.499-4.43
				C136.728,142.157,135.744,141.178,135.084,141.777L135.084,141.777z"/>
		</g>
		<g>
			<path style="fill:#421B36;" d="M140.472,129.349c1.625,1.264,3.789,1.764,5.781,1.136c1.86-0.587,3.309-2.018,4.01-3.822
				c0.136-0.349-0.149-0.761-0.484-0.854c-0.392-0.108-0.717,0.134-0.854,0.485c-1.144,2.946-4.967,4.023-7.472,2.074
				c-0.295-0.23-0.693-0.288-0.981,0C140.233,128.607,140.175,129.117,140.472,129.349L140.472,129.349z"/>
		</g>
	</g>
	<g>
		<path style="fill:#8380FF;" d="M248.238,263.165c0,0-22.585-25.645-38.526-23.648c-15.941,1.997-86.769,41.222-86.769,41.222
			s27.067-36.622,20.474-40.116c-6.593-3.494-49.203-21.304-54.64-15.99c-3.423,3.345-34.086,68.511-38.664,85.302
			c-5.714,20.957,3.939,42.574,21.961,45.559c24.777,4.104,69.057-11.562,69.057-11.562L248.238,263.165z"/>
		<g>
			<path style="fill:#421B36;" d="M96.693,321.695c9.955-15.043,20.505-29.69,30.729-44.549c2.466-3.584,4.923-7.174,7.324-10.802
				c0.494-0.747-0.707-1.443-1.198-0.7c-9.955,15.043-20.505,29.69-30.73,44.549c-2.466,3.584-4.923,7.174-7.324,10.802
				C95.001,321.741,96.202,322.437,96.693,321.695L96.693,321.695z"/>
		</g>
		<path style="fill:#421B36;" d="M102.634,225.309c0,0,2.906-8.014,5.514-7.883c2.608,0.131,33.697,11.083,33.57,13.274
			c-0.127,2.19-4.091,7.23-4.091,7.23l-34.297-12.438"/>
		<g>
			<path style="fill:#421B36;" d="M113.659,319.77c-2.168-4.888-4.337-9.776-6.505-14.664c-0.361-0.815-1.557-0.109-1.198,0.7
				c2.169,4.888,4.337,9.776,6.505,14.664C112.822,321.285,114.018,320.579,113.659,319.77L113.659,319.77z"/>
		</g>
		<g style="opacity:0.2;">
			<path style="fill:#421B36;" d="M120.283,341.232c-1.424-0.061-1.85,0.538-1.758,1.694c-0.177,0-0.355,0-0.532,0
				c0.676,1.392,2.739,2.066,2.93,0c0.089,0,0.177,0,0.266,0C120.342,342.662,120.454,341.842,120.283,341.232z"/>
			<path style="fill:#421B36;" d="M134.344,294.001c-0.158,0.202-0.288,0.433-0.343,0.747c0.1,0.274,0.225,0.487,0.36,0.673
				C134.355,294.944,134.35,294.47,134.344,294.001z"/>
			<path style="fill:#421B36;" d="M124.297,294.6c-0.538-1.286-1.087-1.211-2.249-1.093
				C120.025,295.155,123.551,298.282,124.297,294.6z"/>
			<path style="fill:#421B36;" d="M129.727,328.075c1.406-1.247,1.435-2.769-0.703-2.643
				C126.959,325.694,127.847,328.646,129.727,328.075z"/>
			<path style="fill:#421B36;" d="M133.165,299.183c2.326-1.633-1.503-4.509-2.235-0.888
				C131.551,299.234,131.558,299.238,133.165,299.183z"/>
			<path style="fill:#421B36;" d="M122.729,312.423c-0.938-0.371-1.58,1.513-1.178,2.2c0.757,1.169,2.514,0.698,2.819-0.595
				C124.222,313.142,123.299,312.931,122.729,312.423z"/>
			<path style="fill:#421B36;" d="M134.425,308.501c0-0.48,0-0.96-0.001-1.438C134.052,307.568,133.92,308.089,134.425,308.501z"/>
			<path style="fill:#421B36;" d="M130.725,332.822c-1.072-1.313-2.428-1.288-3.12,0.383c0.52,0.461,0.689,1.239,1.456,1.447
				C129.724,334.133,131.143,333.92,130.725,332.822z"/>
			<path style="fill:#421B36;" d="M129.503,280.484c-4.271,1.274,1.217,5.7,1.002,1.143
				C130.152,281.225,129.815,280.841,129.503,280.484z"/>
			<path style="fill:#421B36;" d="M127.39,336.354c0.402-1.545-2.261-1.849-2.701-0.505
				C124.589,338.08,126.835,338.549,127.39,336.354z"/>
			<polygon style="fill:#421B36;" points="118.398,311.595 118.392,311.591 118.398,311.595 			"/>
			<path style="fill:#421B36;" d="M119.282,309.265c-1.186,0.811-0.722,1.177-0.884,2.33
				C120.638,313.53,122.564,309.433,119.282,309.265z"/>
			<path style="fill:#421B36;" d="M123.438,309.188c1.615-1.959-0.13-4.158-2.201-2.421
				C121.378,308.156,122.17,308.833,123.438,309.188z"/>
			<path style="fill:#421B36;" d="M131.217,304.119c-0.442,1.136,0.357,1.475,1.295,1.905
				C135.953,304.526,131.882,301.497,131.217,304.119z"/>
			<path style="fill:#421B36;" d="M116.388,306.21c-0.071,0.881-0.142,1.779-0.214,2.692c0.356-0.017,0.758-0.156,1.174-0.48
				C118.279,307.394,117.523,306.225,116.388,306.21z"/>
			<path style="fill:#421B36;" d="M127.198,316.317c-0.925-0.738-3.008-0.38-2.242,1.015c0.279,0.295-0.187,0.815,0.15,1.083
				c0.44,0.44,1.108,0.086,1.632-0.013C127.931,318.114,127.446,317.225,127.198,316.317z"/>
			<path style="fill:#421B36;" d="M123.638,321.434c1.004-1.187,0.198-2.182-1.021-2.66c-1.4,0.22-1.248,2.084-0.397,2.831
				C122.711,322.093,123.236,322.079,123.638,321.434z"/>
			<path style="fill:#421B36;" d="M118.652,337.315c0.823,0.956,2.27-0.055,2.45-1.142c-0.442-0.562-0.94-1.099-1.772-1.376
				C117.9,335.786,117.719,335.806,118.652,337.315z"/>
			<path style="fill:#421B36;" d="M131.327,279.998c0.489,0.332,1.018,0.485,1.712,0.329
				C135.386,277.303,131.113,275.64,131.327,279.998z"/>
			<path style="fill:#421B36;" d="M119.961,296.736c-1.142,0.322-1.142,0.322-1.901,1.559
				C119.278,301.151,122.939,297.858,119.961,296.736z"/>
			<path style="fill:#421B36;" d="M119.774,305.702c1.318,0.284,1.713-1.572,0.998-2.256
				C118.678,301.943,117.107,305.293,119.774,305.702z"/>
			<path style="fill:#421B36;" d="M119.68,315.689c-0.322,0.168-0.671,0.349-1.007,0.525c-0.14,0.4-0.269,0.769-0.4,1.147
				c0.349,1.632,1.757,0.893,2.874,0.486C121.123,316.56,120.884,316.215,119.68,315.689z"/>
			<path style="fill:#421B36;" d="M130.455,313.393c-0.837-1.242-2.579-0.809-2.59,0.824c0.235,0.337,0.481,0.692,0.701,1.008
				C130.346,315.836,130.514,314.867,130.455,313.393z"/>
			<path style="fill:#421B36;" d="M117.203,340.79c0.259-0.405,0.492-0.77,0.716-1.12
				C116.169,335.116,113.291,341.363,117.203,340.79z"/>
			<path style="fill:#421B36;" d="M131.444,335.448c-0.122,0.347-0.251,0.711-0.389,1.105c0.21,0.426,0.421,0.852,0.635,1.289
				C134.273,338.209,134.344,333.678,131.444,335.448z"/>
			<path style="fill:#421B36;" d="M121.574,332.268c-0.1,0.287-0.2,0.576-0.318,0.919
				C124.057,336.723,126.156,330.273,121.574,332.268z"/>
			<path style="fill:#421B36;" d="M124.094,282.59c0.113-0.604-0.112-1.121-0.47-1.463l-1.517,1.956
				C122.742,283.539,123.679,283.478,124.094,282.59z"/>
			<path style="fill:#421B36;" d="M128.442,295.628c1.76,1.887,4.118-3.26-0.15-1.811c-0.271,0.406-0.429,0.647-0.702,1.057
				C127.899,295.215,128.291,295.202,128.442,295.628z"/>
			<path style="fill:#421B36;" d="M117.619,293.514c-0.055-0.022-0.11-0.034-0.166-0.05c-0.057,0.653-0.118,1.364-0.183,2.12
				C117.655,295.042,117.792,294.205,117.619,293.514z"/>
			<path style="fill:#421B36;" d="M126.782,309.461c-0.657-0.871-2.065,0.557-1.864,1.248
				C124.689,313.686,128.815,311.165,126.782,309.461z"/>
			<path style="fill:#421B36;" d="M126.731,331.218c1.568-1.885-0.083-2.836-1.747-2.153
				C124.136,330.476,125.22,331.66,126.731,331.218z"/>
			<path style="fill:#421B36;" d="M134.408,301.643c-0.002-0.334-0.003-0.668-0.005-1
				C134.197,301.046,134.231,301.37,134.408,301.643z"/>
			<path style="fill:#421B36;" d="M125.969,296.441c-0.789,0.694-0.789,0.694-1.249,2.203
				C126.911,300.797,128.577,296.883,125.969,296.441z"/>
			<path style="fill:#421B36;" d="M126.346,305.941c0.576-0.568,1.703-2.57,0.254-2.566c-1.011,0.205-1.948-0.485-2.242,0.953
				C124.912,305.085,125.324,305.878,126.346,305.941z"/>
			<path style="fill:#421B36;" d="M129.69,308.81c0.3-0.234,0.54-0.422,0.764-0.596c-0.134-0.823-0.272-1.598-0.997-2.21
				C127.217,306.946,127.119,308.538,129.69,308.81z"/>
			<path style="fill:#421B36;" d="M117.733,300.794c-0.052-0.512-0.418-0.63-0.85-0.632c-0.066,0.794-0.134,1.616-0.204,2.463
				C117.681,302.1,117.716,301.765,117.733,300.794z"/>
			<path style="fill:#421B36;" d="M130.512,339.642c-0.196-1.614-1.321-1.625-2.523-1.044c-0.64,0.766-0.279,1.991,0.701,2.22
				C129.455,340.792,129.752,339.912,130.512,339.642z"/>
			<path style="fill:#421B36;" d="M132.09,328.427c-1.115,0.949-1.212,1.321-0.578,2.581
				C133.856,331.654,134.541,328.673,132.09,328.427z"/>
			<path style="fill:#421B36;" d="M133.697,310.411c0.013-0.723-1.052-0.433-1.452-0.868c-1.47-0.267-1.524,2.702,0.063,2.807
				C133.179,312.139,133.551,311.203,133.697,310.411z"/>
			<path style="fill:#421B36;" d="M124.137,288.571c-0.035-1.949-3.035-1.966-2.502,0.082
				C121.418,290.002,124.32,289.943,124.137,288.571z"/>
			<path style="fill:#421B36;" d="M119.665,290.015c-1.408,0.588-1.65,1.345-0.655,2.571c0.612,0.066,1.18,0.161,1.781,0.309
				c0.036-0.489,0.249-1.45,0.362-1.618C120.639,290.869,120.165,290.458,119.665,290.015z"/>
			<path style="fill:#421B36;" d="M116.066,334.424c1.34,0.037,2.298-1.072,1.343-2.192c-1.21-0.716-2.859,0.083-2.243,1.562
				C115.459,333.999,115.779,334.223,116.066,334.424z"/>
			<path style="fill:#421B36;" d="M127.259,285.861c-0.039-0.425-0.078-0.843-0.114-1.223c-1.306-1.97-3.271,0.267-1.783,1.795
				C126.475,286.527,126.475,286.527,127.259,285.861z"/>
			<path style="fill:#421B36;" d="M131.057,323.524c0.528,1.792,2.896,2.134,2.656-0.091
				C133.145,321.647,131.887,322.312,131.057,323.524z"/>
			<path style="fill:#421B36;" d="M126.615,280.094c0.908-0.748,0.807-1.54,0.368-2.096c-0.855,0.388-1.44,0.656-1.44,0.656
				l-0.424,0.546c0.067,0.183,0.134,0.366,0.236,0.58C125.797,279.851,126.222,279.952,126.615,280.094z"/>
			<path style="fill:#421B36;" d="M122.119,328.02c2.103,0.32,1.217-0.428,1.971-1.65c-0.363-0.423-0.699-0.818-1.036-1.21
				c-0.937,0.177-1.046,1.053-1.573,1.58C121.692,327.166,121.887,327.554,122.119,328.02z"/>
			<path style="fill:#421B36;" d="M127.344,323.896c-0.118-0.771-0.407-1.378-1.083-1.898
				C123.358,323.16,125.384,326.573,127.344,323.896z"/>
			<path style="fill:#421B36;" d="M133.453,286.33c-0.179-0.695,0.464-1.421-0.208-2.189
				C130.018,283.374,130.672,287.385,133.453,286.33z"/>
			<path style="fill:#421B36;" d="M114.747,336.664c0.118-0.375-0.084-0.609-0.402-0.781c-0.023,0.466-0.046,0.927-0.067,1.38
				C114.445,337.095,114.607,336.903,114.747,336.664z"/>
			<path style="fill:#421B36;" d="M123.262,302.718c0.283-0.341,0.556-0.672,0.814-0.984c-0.111-0.449-0.217-0.871-0.319-1.282
				c-1.291-0.863-1.461-0.846-2.248,0.274c0.205,0.253,0.42,0.518,0.63,0.777c-0.13,0.193-0.247,0.366-0.395,0.584
				C122.283,302.336,122.672,302.72,123.262,302.718z"/>
			<path style="fill:#421B36;" d="M121.824,338.835c-0.606,0.416-0.1,1.02,0.177,1.597c0.214,1.191,2.116,0.599,2.131-0.324
				C124.12,339.082,122.647,337.925,121.824,338.835z"/>
			<path style="fill:#421B36;" d="M118.875,322.5c-0.951,0.775-0.309,1.528-0.228,2.273c0.345,0.117,0.674,0.228,0.992,0.336
				C121.332,323.818,121.269,322.202,118.875,322.5z"/>
			<path style="fill:#421B36;" d="M129.784,321.637c1.415-0.586,0.727-2.694-0.713-2.813
				C127.47,320.414,127.778,320.953,129.784,321.637z"/>
			<path style="fill:#421B36;" d="M126.01,293.043c0.672-0.217,1.082-0.676,1.234-1.387c-0.5-0.422-1.066-2.461-1.854-1.32
				c0.091,0.591-0.486,0.67-0.718,1.065C124.834,292.252,125.357,292.682,126.01,293.043z"/>
			<path style="fill:#421B36;" d="M131.668,316.235c-0.171,0.53-0.589,0.917-0.564,1.585
				C133.809,320.202,135.055,315.057,131.668,316.235z"/>
			<path style="fill:#421B36;" d="M134.326,314.052c0.031,0.049,0.062,0.096,0.092,0.145c0-0.184,0.001-0.367,0.001-0.55
				C134.38,313.768,134.346,313.9,134.326,314.052z"/>
			<path style="fill:#421B36;" d="M117.223,314.906c1.15-1.893-0.43-2.637-1.345-2.195c-0.054,0.702-0.107,1.409-0.161,2.12
				c0.035,0.059,0.056,0.112,0.097,0.173C116.28,314.972,116.747,314.938,117.223,314.906z"/>
			<path style="fill:#421B36;" d="M120.893,285.867c-0.078-0.316-0.153-0.618-0.229-0.925l-1.005,1.295
				C120.071,286.168,120.499,286.116,120.893,285.867z"/>
			<path style="fill:#421B36;" d="M131.12,291.294c0.184,2.8,3.559,1.308,2.125-0.839
				C132.482,290.548,131.632,290.325,131.12,291.294z"/>
			<path style="fill:#421B36;" d="M117.693,319.66c-0.763-0.013-1.343-0.97-2.265-0.178c-0.001,0.997,0.243,1.836,1.033,2.489
				c0.46-0.375,0.861-0.702,1.232-1.006C117.693,320.523,117.693,320.137,117.693,319.66z"/>
			<path style="fill:#421B36;" d="M128.25,302.099c0.874,0.893,2.367,0.169,2.429-1.106
				C129.954,299.703,127.507,300.572,128.25,302.099z"/>
			<path style="fill:#421B36;" d="M118.661,329.074c-0.413,0.918,0.292,2.081,1.279,2.04c0.303-0.336,0.587-0.65,0.871-0.964
				c-0.282-1.048-0.282-1.048-1.067-1.508C119.396,328.779,118.977,328.835,118.661,329.074z"/>
			<path style="fill:#421B36;" d="M117.932,288.464l-0.041,0.053c0,0-0.011,0.121-0.03,0.337c0.043-0.025,0.086-0.047,0.13-0.073
				C117.975,288.666,117.953,288.565,117.932,288.464z"/>
			<path style="fill:#421B36;" d="M127.928,288.744c0.85,1.846,4.048-0.426,1.726-1.411
				C128.865,287.571,128.097,287.713,127.928,288.744z"/>
			<path style="fill:#421B36;" d="M115.371,327.277c0.632,2.564,2.956-0.48,1.481-1.529
				C116.184,325.893,115.917,326.752,115.371,327.277z"/>
			<path style="fill:#421B36;" d="M118.392,311.591c0.001,0.005,0.002,0.01,0.002,0.014c0.002-0.003,0.004-0.005,0.006-0.008
				C118.398,311.595,118.392,311.591,118.392,311.591z"/>
			<path style="fill:#421B36;" d="M118.394,311.605c-0.133,0.189-0.267,0.377-0.452,0.634c0.24,0,0.362,0,0.545,0
				C118.455,312.012,118.424,311.809,118.394,311.605z"/>
			<path style="fill:#421B36;" d="M114.528,342.927c0.062-0.579-0.123-0.939-0.432-1.143c-0.028,0.862-0.049,1.685-0.063,2.456
				C114.408,344.079,114.647,343.671,114.528,342.927z"/>
			<path style="fill:#421B36;" d="M133.709,342.927c0.089,0,0.178,0,0.267,0c-0.473-1.819-2.96-2.079-2.93,0
				C130.808,344.802,133.767,344.475,133.709,342.927z"/>
			<path style="fill:#421B36;" d="M127.583,342.927c0.171-1.338-1.598-1.477-2.519-1.102c-0.135,0.361-0.273,0.732-0.411,1.102
				c0.172,0.339,0.346,0.679,0.502,0.983C126.091,344.054,127.24,344.023,127.583,342.927z"/>
			<path style="fill:#421B36;" d="M130.019,347.392c1.368-1.601-0.116-2.551-1.778-2.764
				C127.731,346.005,128.236,348.859,130.019,347.392z"/>
			<path style="fill:#421B36;" d="M115.8,347.439c1.617,0.634,2.47-1.418,1.337-2.429
				C115.285,344.265,114.568,346.152,115.8,347.439z"/>
			<path style="fill:#421B36;" d="M115.952,351.349c-0.078,0.117-0.155,0.232-0.232,0.348c0.483-0.025,1.071-0.106,1.739-0.232
				C117.177,351.271,116.698,351.198,115.952,351.349z"/>
			<path style="fill:#421B36;" d="M124.76,349.058c-0.028,0.155-0.035,0.296-0.029,0.43c0.806-0.257,1.606-0.519,2.381-0.779
				C126.265,348.413,125.488,348.467,124.76,349.058z"/>
			<path style="fill:#421B36;" d="M119.813,348.344c-0.526-0.753-1.386,0.485-1.363,1.08c-0.117,1.326,1.273,1.534,2.11,0.891
				C121.647,349.448,120.193,349.008,119.813,348.344z"/>
			<path style="fill:#421B36;" d="M114.043,348.426c0.022,0.648,0.057,1.203,0.104,1.663c0.24-0.229,0.471-0.518,0.678-0.844
				C114.614,348.766,114.338,348.539,114.043,348.426z"/>
			<path style="fill:#421B36;" d="M122.527,347.49c0.373-0.121,0.805-0.266,1.195-0.402c0.216-0.462,0.417-0.89,0.611-1.306
				c-1.425-0.988-1.611-0.952-2.8,0.481C121.734,346.754,121.937,347.247,122.527,347.49z"/>
		</g>
	</g>
	<g>
		<g>
			<g>
				<path style="fill:#421B36;" d="M242.937,235.448c-2.895-0.769-12.23-0.915-12.23-0.915l-1.804-2.857
					c0,0,7.322-9.838,6.011-12.012c-1.31-2.173-11.566-9.713-13.474-9.115c-1.908,0.598-8.191,7.737-8.191,7.737l-3.778-0.911
					c0,0-0.376-10.777-4.713-11.024c-4.338-0.246-13.098,1.663-14.906,2.579c-1.808,0.916-0.355,11.565-0.355,11.565l-3.029,1.942
					l-1.142-0.702c0,0-7.755-6.059-10.313-4.53c-2.558,1.529-9.404,12.498-9.115,14.026c0.289,1.529,8.292,8.663,8.292,8.663
					l-0.966,2.895c0,0-10.093,1.937-10.833,4.706c-0.74,2.769-0.176,14.516,2.756,15.124c2.933,0.608,12.262,0.239,12.262,0.239
					l1.958,2.753c0,0-6.768,10.227-5.34,12.325c1.428,2.098,12.084,9.061,13.956,8.359c1.872-0.702,7.752-8.176,7.752-8.176
					l3.822,0.701c0,0,0.969,10.74,5.314,10.747c4.345,0.007,12.987-2.382,14.742-3.396c1.755-1.014-0.283-11.567-0.283-11.567
					l3.08-2.224c0,0,7.77,5.911,11.1,4.163c3.331-1.748,9.397-11,8.812-12.56c-0.586-1.56-7.49-8.579-7.49-8.579l0.123-0.786
					c2.704-0.457,9.195-1.768,9.899-3.918C245.748,247.976,245.832,236.216,242.937,235.448z M202.422,260.962
					c-7.396-0.777-12.761-7.402-11.984-14.798c0.777-7.396,7.402-12.761,14.798-11.984c7.396,0.777,12.761,7.402,11.984,14.798
					C216.443,256.373,209.818,261.739,202.422,260.962z"/>
			</g>
		</g>
	</g>
	<g>
		<g>
			<g>
				<path style="fill:#421B36;stroke:#8380FF;stroke-miterlimit:10;" d="M239.659,235.448c-2.895-0.769-12.23-0.915-12.23-0.915
					l-1.804-2.857c0,0,7.322-9.838,6.012-12.012c-1.31-2.173-11.566-9.713-13.474-9.115c-1.908,0.598-8.19,7.737-8.19,7.737
					l-3.778-0.911c0,0-0.376-10.777-4.713-11.024c-4.338-0.246-13.098,1.663-14.906,2.579c-1.808,0.916-0.355,11.565-0.355,11.565
					l-3.029,1.942l-1.142-0.702c0,0-7.755-6.059-10.313-4.53c-2.558,1.529-9.404,12.498-9.115,14.026
					c0.289,1.529,8.292,8.663,8.292,8.663l-0.966,2.895c0,0-10.093,1.937-10.833,4.706c-0.74,2.769-0.176,14.516,2.756,15.124
					c2.933,0.608,12.262,0.239,12.262,0.239l1.958,2.753c0,0-6.769,10.227-5.34,12.325c1.428,2.098,12.084,9.061,13.956,8.359
					c1.872-0.702,7.752-8.176,7.752-8.176l3.822,0.701c0,0,0.969,10.74,5.314,10.747c4.345,0.007,12.987-2.382,14.742-3.396
					c1.755-1.014-0.283-11.567-0.283-11.567l3.08-2.224c0,0,7.77,5.911,11.1,4.163c3.33-1.748,9.397-11,8.812-12.56
					c-0.585-1.56-7.49-8.579-7.49-8.579l0.123-0.786c2.704-0.457,9.195-1.768,9.899-3.918
					C242.47,247.976,242.554,236.216,239.659,235.448z M199.144,260.962c-7.396-0.777-12.761-7.402-11.984-14.798
					c0.777-7.396,7.402-12.761,14.798-11.984c7.395,0.777,12.761,7.402,11.984,14.798
					C213.165,256.373,206.539,261.739,199.144,260.962z"/>
			</g>
		</g>
	</g>
	<g>
		<path style="fill:#421B36;" d="M126.345,401.066c0,0-3.741-133.44,1.871-138.041c5.612-4.601,197.031-0.575,201.396,0
			c4.365,0.575,4.365,132.289,0,137.466C325.247,405.667,126.345,401.066,126.345,401.066z"/>
		<path style="fill:#A0D2F4;" d="M264.994,392.498c-46.539,0-107.538-1.212-127.896-1.646
			c-1.304-50.609-1.434-104.278,0.431-118.473c5.128-0.466,18.142-1.081,51.087-1.081c48.054,0,111.532,1.282,129.884,1.846
			c2.272,20.446,2.125,99.507-0.269,118.163C312.952,391.818,299.447,392.498,264.994,392.498z"/>
		<path style="fill:#421B36;" d="M126.345,400.907c0,0-32.655,29.802-34.064,31.812c-2.581,3.682,0,7.363,0,7.363
			c-0.644,2.831,267.459,4.514,270.544,1.873c2.326-1.991,3.075-5.556,0.129-8.01s-33.343-33.662-33.343-33.662L126.345,400.907z"/>
		<g>
			<path style="fill:#8380FF;" d="M94.372,434.277c34.939,0.002,69.876,0.428,104.811,0.957
				c34.568,0.523,69.136,1.139,103.706,1.513c19.634,0.213,39.268,0.346,58.903,0.347c0.893,0,0.894-1.387,0-1.387
				c-34.939-0.002-69.876-0.428-104.811-0.957c-34.568-0.523-69.136-1.139-103.706-1.513c-19.634-0.212-39.268-0.345-58.903-0.347
				C93.479,432.889,93.478,434.277,94.372,434.277L94.372,434.277z"/>
		</g>
		<g>
			<path style="fill:#8380FF;" d="M128.36,401.259c26.244,0,52.489,0,78.733,0c26.06,0,52.119,0,78.179,0
				c14.786,0,29.571,0,44.357,0c0.893,0,0.894-1.388,0-1.388c-26.245,0-52.489,0-78.733,0c-26.06,0-52.119,0-78.179,0
				c-14.786,0-29.571,0-44.357,0C127.467,399.872,127.466,401.259,128.36,401.259L128.36,401.259z"/>
		</g>
		<g>
			<path style="fill:#8380FF;" d="M152.97,261.073c22.972-0.062,45.944-0.124,68.916-0.186c6.55-0.018,13.1-0.035,19.651-0.053
				c0.893-0.003,0.894-1.39,0-1.388c-22.972,0.062-45.944,0.124-68.916,0.186c-6.55,0.018-13.101,0.035-19.651,0.053
				C152.077,259.688,152.076,261.076,152.97,261.073L152.97,261.073z"/>
		</g>
		<path style="fill:#8380FF;" d="M138.43,407.416c-2.447-0.098-19.729,13.468-16.594,14.229c3.135,0.761,212.608,2.881,211.04,0
			c-1.568-2.881-11.901-13.634-14.025-14.249C311.312,405.213,138.43,407.416,138.43,407.416z"/>
		<g>
			<path style="fill:#FFFFFF;" d="M229.392,282.2c-8.973-0.113-65.635,91.466-61.799,95.941c3.442,4.015,125.5,4.969,128.046,0.855
				C299.384,372.947,240.098,279.478,229.392,282.2z"/>
			<path style="fill:#8380FF;" d="M248.201,374.544c-30.94,0-57.755-0.543-71.71-1.191c4.384-8.539,12.432-22.807,23.104-39.953
				c15.035-24.153,25.151-37.731,29.98-43.027c12.342,11.616,44.246,61.9,55.64,83.75c-7.383,0.233-19.17,0.422-37.01,0.422
				C248.202,374.544,248.202,374.544,248.201,374.544z"/>
			<path style="fill:#FFFFFF;" d="M238.879,311.035c0.662,0.962,0.795,38.067-3.583,39.815c-1.209,0.483-3.254,0.419-5.027,0.228
				c-1.996-0.215-3.643-1.672-4.018-3.602c-1.727-8.876-6.246-34.113-2.257-36.363C228.842,308.379,237.377,308.852,238.879,311.035
				z"/>
			<path style="fill:#FFFFFF;" d="M225.994,362.486c1.178,3.05,4.642,4.657,7.739,3.587c3.096-1.069,4.651-4.409,3.473-7.46
				c-1.178-3.051-4.643-4.657-7.739-3.587C226.372,356.096,224.817,359.436,225.994,362.486z"/>
			<g>
				<path style="fill:#421B36;" d="M228.81,281.506c-1.21,0.006-2.319,0.882-3.211,1.603c-1.587,1.282-2.988,2.799-4.338,4.323
					c-4.212,4.752-7.986,9.905-11.67,15.07c-9.711,13.614-18.706,27.769-27.217,42.159c-3.685,6.23-7.285,12.518-10.611,18.949
					c-1.998,3.864-4.278,7.929-5.37,12.173c-0.222,0.862-0.549,2.127,0.144,2.868c0.592,0.633,1.768,0.781,2.567,0.937
					c4.205,0.823,8.564,1.035,12.831,1.308c15.175,0.97,30.404,1.233,45.606,1.383c15.868,0.157,31.755,0.146,47.614-0.447
					c5.118-0.191,10.267-0.382,15.355-1.002c1.644-0.2,5.262-0.163,5.405-2.449c0.078-1.247-0.404-2.57-0.811-3.725
					c-0.735-2.087-1.66-4.111-2.614-6.105c-2.827-5.907-6.06-11.623-9.366-17.271c-8.471-14.473-17.642-28.581-27.475-42.165
					c-4.291-5.928-8.714-11.788-13.521-17.309c-2.946-3.383-6.16-7.226-10.122-9.47c-1.007-0.57-2.203-1.084-3.38-0.804
					c-0.868,0.206-0.501,1.544,0.369,1.338c0.321-0.076,0.704-0.025,1.217,0.148c0.575,0.194,1.16,0.537,1.7,0.886
					c1.645,1.061,3.099,2.421,4.49,3.788c4.398,4.324,8.284,9.184,12.042,14.062c9.914,12.868,18.947,26.45,27.483,40.263
					c3.902,6.314,7.695,12.701,11.24,19.222c2.401,4.418,4.868,8.928,6.562,13.677c0.411,1.152,0.824,2.346,0.799,3.464
					c0-0.016-0.063,0.287-0.034,0.202c-0.048,0.141,0.128-0.061-0.012,0.016c-0.274,0.151-0.471,0.209-0.951,0.332
					c-3.519,0.899-7.348,0.954-10.952,1.166c-14.354,0.841-28.768,0.886-43.143,0.863c-15.86-0.025-31.729-0.253-47.575-0.933
					c-5.676-0.244-11.36-0.522-17.016-1.071c-1.709-0.166-3.424-0.345-5.114-0.657c-0.536-0.099-1.07-0.212-1.593-0.366
					c-0.385-0.114-0.572-0.229-0.611-0.254c0.021,0.013,0.021,0.141,0-0.066c0.013,0.129-0.012-0.286,0.004-0.454
					c0.035-0.356,0.193-1.012,0.344-1.519c0.519-1.742,1.26-3.42,2.013-5.071c2.511-5.501,5.437-10.818,8.405-16.082
					c7.988-14.169,16.621-28.001,25.712-41.487c4.079-6.051,8.26-12.045,12.711-17.829c2.914-3.787,5.927-7.806,9.622-10.882
					c0.465-0.387,0.949-0.754,1.478-1.05c0.398-0.223,0.718-0.344,0.993-0.345C229.702,282.889,229.704,281.502,228.81,281.506z"/>
			</g>
		</g>
		<g>
			<path style="fill:#421B36;" d="M176.384,335.329c-6.152-1.474-12.305-2.948-18.457-4.422c0,0.446,0,0.892,0,1.338
				c6.942-1.88,13.884-3.76,20.826-5.639c0.494-0.134,0.687-0.799,0.306-1.16c-6.41-6.06-12.001-12.906-16.651-20.402
				c-0.261,0.34-0.522,0.679-0.783,1.019c8.571,2.518,17.141,5.035,25.712,7.553c0.439,0.129,0.872-0.226,0.878-0.669
				c0.079-6.059,0.157-12.118,0.236-18.177c-0.431,0.117-0.862,0.233-1.293,0.35c2.953,4.442,5.905,8.883,8.858,13.325
				c0.492,0.74,1.694,0.046,1.198-0.7c-2.953-4.442-5.905-8.883-8.858-13.325c-0.374-0.562-1.284-0.363-1.293,0.35
				c-0.079,6.059-0.157,12.118-0.236,18.177c0.293-0.223,0.586-0.446,0.878-0.669c-8.57-2.518-17.141-5.035-25.712-7.553
				c-0.573-0.168-1.102,0.505-0.784,1.019c4.709,7.592,10.375,14.545,16.868,20.683c0.102-0.387,0.204-0.773,0.306-1.159
				c-6.942,1.88-13.884,3.759-20.826,5.639c-0.647,0.175-0.674,1.177,0,1.338c6.152,1.474,12.305,2.948,18.457,4.422
				C176.883,336.875,177.253,335.538,176.384,335.329L176.384,335.329z"/>
		</g>
		<path style="fill:#FFFFFF;" d="M231.317,267.148c0,1.133-0.918,2.051-2.051,2.051c-1.132,0-2.05-0.918-2.05-2.051
			c0-1.132,0.918-2.051,2.05-2.051C230.399,265.098,231.317,266.016,231.317,267.148z"/>
	</g>
	<g>
		<g>
			<path style="fill:#FFAE7A;" d="M332.994,271.677c0,0-31.504-11.37-35.777-12.535c-5.813-1.585-9.79,2.127-8.519,6.428
				c1.271,4.301,10.088,7.968,17.45,10.498s17.699,6.421,17.699,6.421s-39.173-10.233-42.809-3.794
				c-5.092,9.017,8.238,12.315,8.238,12.315s-11.084,0.531-6.664,10.043c3.565,7.671,43.918,8.037,43.918,8.037
				s-34.292,1.135-37.628,6.327c-3.336,5.192-0.393,8.37,4.372,9.231c4.765,0.861,27.922-1.498,27.922-1.498
				s5.278,29.121,21.797,23.964c0,0,25.192,39.206,30.865,38.083c5.673-1.123,18.052-24.47,18.052-24.47l-35.494-31.243
				C356.414,329.483,338.842,274.371,332.994,271.677z"/>
			<g>
				<path style="fill:#421B36;" d="M327.481,295.35c-6.689-0.727-13.379-1.454-20.068-2.18c-3.299-0.358-6.598-0.717-9.897-1.075
					c-2.848-0.31-5.725-0.769-8.585-0.93c-2.003-0.113-4.198,0.476-5.718,1.812c-2.136,1.877-3.01,5.57-1.437,8.046
					c1.537,2.419,4.527,3.688,7.124,4.589c2.576,0.893,5.264,1.484,7.958,1.888c3.385,0.508,6.819,0.75,10.222,1.104
					c5.388,0.559,10.777,1.119,16.165,1.678c0.887,0.092,0.881-1.296,0-1.388c-8.339-0.866-16.695-1.628-25.023-2.597
					c-4.274-0.497-8.961-1.477-12.683-3.703c-2.655-1.588-4.016-4.021-2.556-7.055c1.032-2.145,3.464-3.052,5.729-2.995
					c2.375,0.06,4.794,0.502,7.155,0.759c3.482,0.378,6.964,0.757,10.446,1.135c7.056,0.767,14.112,1.533,21.168,2.3
					C328.368,296.834,328.361,295.445,327.481,295.35L327.481,295.35z"/>
			</g>
			<g>
				<path style="fill:#421B36;" d="M281.865,297.697c2.184,1.932,5.359,2.673,8.142,1.7c2.65-0.926,4.702-3.234,5.322-5.97
					c0.197-0.87-1.14-1.241-1.338-0.369c-0.51,2.251-2.15,4.228-4.352,5c-2.306,0.809-4.965,0.273-6.792-1.344
					C282.179,296.126,281.194,297.104,281.865,297.697L281.865,297.697z"/>
			</g>
			<g>
				<path style="fill:#421B36;" d="M280.824,281.086c1.973,1.514,4.563,2.475,7.031,1.677c2.277-0.737,3.877-2.993,3.352-5.409
					c-0.19-0.872-1.528-0.503-1.338,0.369c0.404,1.857-1.103,3.424-2.81,3.821c-2.007,0.467-3.974-0.458-5.535-1.656
					c-0.299-0.23-0.774-0.044-0.949,0.249C280.363,280.492,280.529,280.859,280.824,281.086L280.824,281.086z"/>
			</g>
			<g>
				<path style="fill:#421B36;" d="M328.331,285.1c-4.29-3.315-9.617-4.425-14.779-5.68c-7.104-1.727-14.426-3.313-21.756-3.558
					c-4.855-0.162-13.054,0.928-12.447,7.585c0.47,5.158,5.658,6.295,9.833,7.319c5.26,1.291,10.609,2.281,15.955,3.146
					c0.874,0.141,1.249-1.195,0.369-1.338c-4.034-0.653-8.057-1.402-12.053-2.257c-2.689-0.575-5.394-1.172-8.009-2.031
					c-1.824-0.599-3.411-1.378-4.251-3.215c-0.869-1.9-0.543-4.108,0.987-5.566c2.345-2.236,6.091-2.339,9.132-2.271
					c6.805,0.151,13.605,1.58,20.21,3.126c5.424,1.27,11.476,2.358,15.967,5.828C328.107,286.667,328.954,285.582,328.331,285.1
					L328.331,285.1z"/>
			</g>
			<g>
				<path style="fill:#421B36;" d="M291.492,260.172c0.321,2.29,2.601,3.45,4.682,3.674c2.045,0.22,4.532-0.042,6.008-1.63
					c0.607-0.653-0.372-1.637-0.981-0.981c-1.161,1.249-3.097,1.363-4.696,1.253c-1.629-0.113-3.422-0.886-3.674-2.684
					c-0.052-0.374-0.525-0.571-0.853-0.485C291.576,259.424,291.44,259.802,291.492,260.172L291.492,260.172z"/>
			</g>
			<g>
				<path style="fill:#421B36;" d="M288.863,320.689c2.517,0.158,5.243-0.055,7.181-1.859c1.69-1.573,2.15-4.255,0.616-6.094
					c-0.24-0.288-0.733-0.248-0.981,0c-0.285,0.285-0.241,0.693,0,0.981c1.147,1.375,0.371,3.367-0.875,4.358
					c-1.663,1.322-3.923,1.353-5.941,1.227C287.971,319.246,287.975,320.633,288.863,320.689L288.863,320.689z"/>
			</g>
			<g>
				<path style="fill:#421B36;" d="M330.235,308.34c-3.72,0.164-7.448,0.631-11.154,0.983c-6.082,0.578-12.164,1.18-18.234,1.881
					c-3.675,0.425-7.996,0.404-11.124,2.663c-2.172,1.568-3.242,4.023-2.812,6.689c0.351,2.177,2.103,3.424,4.079,4.098
					c2.978,1.016,6.329,1.009,9.436,0.91c2.974-0.095,5.927-0.422,8.89-0.671c0.883-0.074,0.891-1.462,0-1.387
					c-5.067,0.425-10.265,1.168-15.337,0.417c-1.876-0.278-4.593-0.811-5.473-2.754c-1.143-2.524,0.438-5.275,2.609-6.558
					c3.01-1.78,7.076-1.717,10.443-2.1c5.582-0.636,11.173-1.193,16.765-1.728c3.957-0.378,7.939-0.88,11.912-1.055
					C331.124,309.688,331.129,308.3,330.235,308.34L330.235,308.34z"/>
			</g>
		</g>
		<path style="fill:#421B36;" d="M345.892,351.986c0,0-3.618-2.724-2.393-6.131c1.226-3.408,12.525-20.548,15.618-17.829
			c3.094,2.719,5.38,4.199,5.38,4.199l-17.61,19.762"/>
		<path style="fill:#8380FF;" d="M337.049,246.781c0,0,37.906-0.142,53.317,29.373c15.411,29.515,53.549,112.426,51.097,130.003
			c-2.452,17.577-12.258,32.957-31.172,30.76c-18.913-2.197-74.602-61.52-72.15-69.942c2.452-8.422,23.6-34.755,23.6-34.755
			L337.049,246.781z"/>
		<g>
			<path style="fill:#421B36;" d="M421.438,375.866c-10.484-12.051-21.44-23.756-32.884-34.9
				c-4.541-4.422-9.155-8.876-14.232-12.688c-1.397-1.049-4.943-4.152-6.766-2.473c-0.856,0.789-1.59,1.779-2.363,2.648
				c-1.546,1.739-3.085,3.483-4.619,5.233c-4.096,4.671-8.158,9.374-12.141,14.142c-3.563,4.265-7.144,8.558-10.343,13.108
				c-0.888,1.263-1.884,2.595-2.431,4.055c-0.463,1.237,0.036,2.387,0.59,3.518c2.596,5.296,6.683,10.034,10.346,14.608
				c3.985,4.977,8.095,9.87,12.373,14.598c0.594,0.657,1.192,1.31,1.806,1.948c0.62,0.645,1.601-0.337,0.981-0.981
				c-3.629-3.771-6.997-7.82-10.34-11.843c-4.185-5.036-8.377-10.147-11.967-15.633c-0.937-1.432-2.368-3.257-2.604-5.015
				c-0.1-0.751,0.69-1.896,1.186-2.682c2.602-4.125,5.791-7.912,8.879-11.674c6.692-8.154,13.64-16.103,20.666-23.97
				c0.29-0.325,0.622-0.638,0.883-0.987c0.057-0.076,0.13-0.157,0.199-0.222c-0.008,0.008-0.207,0.026-0.022,0.053
				c1.014,0.147,2.289,0.89,3.299,1.565c4.674,3.123,8.812,7.147,12.87,11.008c11.343,10.792,22.092,22.254,32.483,33.961
				c1.063,1.197,2.12,2.399,3.17,3.607C421.044,377.522,422.022,376.537,421.438,375.866L421.438,375.866z"/>
		</g>
		<g>
			<path style="fill:#421B36;" d="M404.633,358.525c6.311,0.862,12.564,2.089,18.732,3.674c0.865,0.223,1.235-1.115,0.369-1.338
				c-6.169-1.586-12.422-2.812-18.732-3.674C404.129,357.068,403.751,358.405,404.633,358.525L404.633,358.525z"/>
		</g>
		<g>
			<path style="fill:#A0D2F4;" d="M363.366,296.633c4.34-1.159,8.346-3.49,12.584-5.003c4.25-1.518,8.705-2.443,12.908-4.071
				c0.368-0.142,0.354-0.753-0.1-0.736c-8.048,0.294-19.459,4.142-25.528,9.575C363.122,296.495,363.236,296.668,363.366,296.633
				L363.366,296.633z"/>
		</g>
		<g>
			<path style="fill:#421B36;" d="M358.276,327.923c3-6.384,6-12.768,9-19.152c0.378-0.803-0.818-1.509-1.198-0.7
				c-3,6.384-6,12.768-9.001,19.152C356.7,328.026,357.896,328.732,358.276,327.923L358.276,327.923z"/>
		</g>
		<g>
			<path style="fill:#421B36;" d="M366.564,308.761c1.447,0.283,2.909,0.283,4.356,0c0.357-0.07,0.594-0.516,0.485-0.853
				c-0.123-0.38-0.471-0.559-0.853-0.485c-0.362,0.071-0.531,0.097-0.864,0.128c-0.314,0.029-0.63,0.043-0.945,0.043
				c-0.315,0-0.631-0.014-0.945-0.043c-0.337-0.031-0.502-0.057-0.864-0.128c-0.355-0.069-0.766,0.1-0.853,0.485
				C366.001,308.251,366.183,308.687,366.564,308.761L366.564,308.761z"/>
		</g>
	</g>
</g>
</svg>
